<?xml version="1.0" encoding="utf-8" standalone="no"?>
<!DOCTYPE svg PUBLIC "-//W3C//DTD SVG 1.1//EN"
  "http://www.w3.org/Graphics/SVG/1.1/DTD/svg11.dtd">
<svg xmlns:xlink="http://www.w3.org/1999/xlink" width="380.467187pt" height="280.014687pt" viewBox="0 0 380.467187 280.014687" xmlns="http://www.w3.org/2000/svg" version="1.1">
 <metadata>
  <rdf:RDF xmlns:dc="http://purl.org/dc/elements/1.1/" xmlns:cc="http://creativecommons.org/ns#" xmlns:rdf="http://www.w3.org/1999/02/22-rdf-syntax-ns#">
   <cc:Work>
    <dc:type rdf:resource="http://purl.org/dc/dcmitype/StillImage"/>
    <dc:date>2022-08-29T10:18:29.722374</dc:date>
    <dc:format>image/svg+xml</dc:format>
    <dc:creator>
     <cc:Agent>
      <dc:title>Matplotlib v3.5.1, https://matplotlib.org/</dc:title>
     </cc:Agent>
    </dc:creator>
   </cc:Work>
  </rdf:RDF>
 </metadata>
 <defs>
  <style type="text/css">*{stroke-linejoin: round; stroke-linecap: butt}</style>
 </defs>
 <g id="figure_1">
  <g id="patch_1">
   <path d="M 0 280.014687 
L 380.467187 280.014687 
L 380.467187 0 
L 0 0 
z
" style="fill: #ffffff"/>
  </g>
  <g id="axes_1">
   <g id="patch_2">
    <path d="M 38.467188 243.524062 
L 373.267188 243.524062 
L 373.267188 26.084062 
L 38.467188 26.084062 
z
" style="fill: #ffffff"/>
   </g>
   <g id="matplotlib.axis_1">
    <g id="xtick_1">
     <g id="line2d_1">
      <path d="M 47.336062 243.524062 
L 47.336062 26.084062 
" clip-path="url(#p322face1ab)" style="fill: none; stroke-dasharray: 0.8,1.32; stroke-dashoffset: 0; stroke: #cccccc; stroke-width: 0.8"/>
     </g>
     <g id="text_1">
      <!-- 1949 -->
      <g style="fill: #262626" transform="translate(36.214187 257.681875)scale(0.1 -0.1)">
       <defs>
        <path id="ArialMT-31" d="M 2384 0 
L 1822 0 
L 1822 3584 
Q 1619 3391 1289 3197 
Q 959 3003 697 2906 
L 697 3450 
Q 1169 3672 1522 3987 
Q 1875 4303 2022 4600 
L 2384 4600 
L 2384 0 
z
" transform="scale(0.015625)"/>
        <path id="ArialMT-39" d="M 350 1059 
L 891 1109 
Q 959 728 1153 556 
Q 1347 384 1650 384 
Q 1909 384 2104 503 
Q 2300 622 2425 820 
Q 2550 1019 2634 1356 
Q 2719 1694 2719 2044 
Q 2719 2081 2716 2156 
Q 2547 1888 2255 1720 
Q 1963 1553 1622 1553 
Q 1053 1553 659 1965 
Q 266 2378 266 3053 
Q 266 3750 677 4175 
Q 1088 4600 1706 4600 
Q 2153 4600 2523 4359 
Q 2894 4119 3086 3673 
Q 3278 3228 3278 2384 
Q 3278 1506 3087 986 
Q 2897 466 2520 194 
Q 2144 -78 1638 -78 
Q 1100 -78 759 220 
Q 419 519 350 1059 
z
M 2653 3081 
Q 2653 3566 2395 3850 
Q 2138 4134 1775 4134 
Q 1400 4134 1122 3828 
Q 844 3522 844 3034 
Q 844 2597 1108 2323 
Q 1372 2050 1759 2050 
Q 2150 2050 2401 2323 
Q 2653 2597 2653 3081 
z
" transform="scale(0.015625)"/>
        <path id="ArialMT-34" d="M 2069 0 
L 2069 1097 
L 81 1097 
L 81 1613 
L 2172 4581 
L 2631 4581 
L 2631 1613 
L 3250 1613 
L 3250 1097 
L 2631 1097 
L 2631 0 
L 2069 0 
z
M 2069 1613 
L 2069 3678 
L 634 1613 
L 2069 1613 
z
" transform="scale(0.015625)"/>
       </defs>
       <use xlink:href="#ArialMT-31"/>
       <use xlink:href="#ArialMT-39" x="55.615234"/>
       <use xlink:href="#ArialMT-34" x="111.230469"/>
       <use xlink:href="#ArialMT-39" x="166.845703"/>
      </g>
     </g>
    </g>
    <g id="xtick_2">
     <g id="line2d_2">
      <path d="M 91.680433 243.524062 
L 91.680433 26.084062 
" clip-path="url(#p322face1ab)" style="fill: none; stroke-dasharray: 0.8,1.32; stroke-dashoffset: 0; stroke: #cccccc; stroke-width: 0.8"/>
     </g>
     <g id="text_2">
      <!-- 1959 -->
      <g style="fill: #262626" transform="translate(80.558558 257.681875)scale(0.1 -0.1)">
       <defs>
        <path id="ArialMT-35" d="M 266 1200 
L 856 1250 
Q 922 819 1161 601 
Q 1400 384 1738 384 
Q 2144 384 2425 690 
Q 2706 997 2706 1503 
Q 2706 1984 2436 2262 
Q 2166 2541 1728 2541 
Q 1456 2541 1237 2417 
Q 1019 2294 894 2097 
L 366 2166 
L 809 4519 
L 3088 4519 
L 3088 3981 
L 1259 3981 
L 1013 2750 
Q 1425 3038 1878 3038 
Q 2478 3038 2890 2622 
Q 3303 2206 3303 1553 
Q 3303 931 2941 478 
Q 2500 -78 1738 -78 
Q 1113 -78 717 272 
Q 322 622 266 1200 
z
" transform="scale(0.015625)"/>
       </defs>
       <use xlink:href="#ArialMT-31"/>
       <use xlink:href="#ArialMT-39" x="55.615234"/>
       <use xlink:href="#ArialMT-35" x="111.230469"/>
       <use xlink:href="#ArialMT-39" x="166.845703"/>
      </g>
     </g>
    </g>
    <g id="xtick_3">
     <g id="line2d_3">
      <path d="M 136.024803 243.524062 
L 136.024803 26.084062 
" clip-path="url(#p322face1ab)" style="fill: none; stroke-dasharray: 0.8,1.32; stroke-dashoffset: 0; stroke: #cccccc; stroke-width: 0.8"/>
     </g>
     <g id="text_3">
      <!-- 1969 -->
      <g style="fill: #262626" transform="translate(124.902928 257.681875)scale(0.1 -0.1)">
       <defs>
        <path id="ArialMT-36" d="M 3184 3459 
L 2625 3416 
Q 2550 3747 2413 3897 
Q 2184 4138 1850 4138 
Q 1581 4138 1378 3988 
Q 1113 3794 959 3422 
Q 806 3050 800 2363 
Q 1003 2672 1297 2822 
Q 1591 2972 1913 2972 
Q 2475 2972 2870 2558 
Q 3266 2144 3266 1488 
Q 3266 1056 3080 686 
Q 2894 316 2569 119 
Q 2244 -78 1831 -78 
Q 1128 -78 684 439 
Q 241 956 241 2144 
Q 241 3472 731 4075 
Q 1159 4600 1884 4600 
Q 2425 4600 2770 4297 
Q 3116 3994 3184 3459 
z
M 888 1484 
Q 888 1194 1011 928 
Q 1134 663 1356 523 
Q 1578 384 1822 384 
Q 2178 384 2434 671 
Q 2691 959 2691 1453 
Q 2691 1928 2437 2201 
Q 2184 2475 1800 2475 
Q 1419 2475 1153 2201 
Q 888 1928 888 1484 
z
" transform="scale(0.015625)"/>
       </defs>
       <use xlink:href="#ArialMT-31"/>
       <use xlink:href="#ArialMT-39" x="55.615234"/>
       <use xlink:href="#ArialMT-36" x="111.230469"/>
       <use xlink:href="#ArialMT-39" x="166.845703"/>
      </g>
     </g>
    </g>
    <g id="xtick_4">
     <g id="line2d_4">
      <path d="M 180.369174 243.524062 
L 180.369174 26.084062 
" clip-path="url(#p322face1ab)" style="fill: none; stroke-dasharray: 0.8,1.32; stroke-dashoffset: 0; stroke: #cccccc; stroke-width: 0.8"/>
     </g>
     <g id="text_4">
      <!-- 1979 -->
      <g style="fill: #262626" transform="translate(169.247299 257.681875)scale(0.1 -0.1)">
       <defs>
        <path id="ArialMT-37" d="M 303 3981 
L 303 4522 
L 3269 4522 
L 3269 4084 
Q 2831 3619 2401 2847 
Q 1972 2075 1738 1259 
Q 1569 684 1522 0 
L 944 0 
Q 953 541 1156 1306 
Q 1359 2072 1739 2783 
Q 2119 3494 2547 3981 
L 303 3981 
z
" transform="scale(0.015625)"/>
       </defs>
       <use xlink:href="#ArialMT-31"/>
       <use xlink:href="#ArialMT-39" x="55.615234"/>
       <use xlink:href="#ArialMT-37" x="111.230469"/>
       <use xlink:href="#ArialMT-39" x="166.845703"/>
      </g>
     </g>
    </g>
    <g id="xtick_5">
     <g id="line2d_5">
      <path d="M 224.713545 243.524062 
L 224.713545 26.084062 
" clip-path="url(#p322face1ab)" style="fill: none; stroke-dasharray: 0.8,1.32; stroke-dashoffset: 0; stroke: #cccccc; stroke-width: 0.8"/>
     </g>
     <g id="text_5">
      <!-- 1989 -->
      <g style="fill: #262626" transform="translate(213.59167 257.681875)scale(0.1 -0.1)">
       <defs>
        <path id="ArialMT-38" d="M 1131 2484 
Q 781 2613 612 2850 
Q 444 3088 444 3419 
Q 444 3919 803 4259 
Q 1163 4600 1759 4600 
Q 2359 4600 2725 4251 
Q 3091 3903 3091 3403 
Q 3091 3084 2923 2848 
Q 2756 2613 2416 2484 
Q 2838 2347 3058 2040 
Q 3278 1734 3278 1309 
Q 3278 722 2862 322 
Q 2447 -78 1769 -78 
Q 1091 -78 675 323 
Q 259 725 259 1325 
Q 259 1772 486 2073 
Q 713 2375 1131 2484 
z
M 1019 3438 
Q 1019 3113 1228 2906 
Q 1438 2700 1772 2700 
Q 2097 2700 2305 2904 
Q 2513 3109 2513 3406 
Q 2513 3716 2298 3927 
Q 2084 4138 1766 4138 
Q 1444 4138 1231 3931 
Q 1019 3725 1019 3438 
z
M 838 1322 
Q 838 1081 952 856 
Q 1066 631 1291 507 
Q 1516 384 1775 384 
Q 2178 384 2440 643 
Q 2703 903 2703 1303 
Q 2703 1709 2433 1975 
Q 2163 2241 1756 2241 
Q 1359 2241 1098 1978 
Q 838 1716 838 1322 
z
" transform="scale(0.015625)"/>
       </defs>
       <use xlink:href="#ArialMT-31"/>
       <use xlink:href="#ArialMT-39" x="55.615234"/>
       <use xlink:href="#ArialMT-38" x="111.230469"/>
       <use xlink:href="#ArialMT-39" x="166.845703"/>
      </g>
     </g>
    </g>
    <g id="xtick_6">
     <g id="line2d_6">
      <path d="M 269.057916 243.524062 
L 269.057916 26.084062 
" clip-path="url(#p322face1ab)" style="fill: none; stroke-dasharray: 0.8,1.32; stroke-dashoffset: 0; stroke: #cccccc; stroke-width: 0.8"/>
     </g>
     <g id="text_6">
      <!-- 1999 -->
      <g style="fill: #262626" transform="translate(257.936041 257.681875)scale(0.1 -0.1)">
       <use xlink:href="#ArialMT-31"/>
       <use xlink:href="#ArialMT-39" x="55.615234"/>
       <use xlink:href="#ArialMT-39" x="111.230469"/>
       <use xlink:href="#ArialMT-39" x="166.845703"/>
      </g>
     </g>
    </g>
    <g id="xtick_7">
     <g id="line2d_7">
      <path d="M 313.402287 243.524062 
L 313.402287 26.084062 
" clip-path="url(#p322face1ab)" style="fill: none; stroke-dasharray: 0.8,1.32; stroke-dashoffset: 0; stroke: #cccccc; stroke-width: 0.8"/>
     </g>
     <g id="text_7">
      <!-- 2009 -->
      <g style="fill: #262626" transform="translate(302.280412 257.681875)scale(0.1 -0.1)">
       <defs>
        <path id="ArialMT-32" d="M 3222 541 
L 3222 0 
L 194 0 
Q 188 203 259 391 
Q 375 700 629 1000 
Q 884 1300 1366 1694 
Q 2113 2306 2375 2664 
Q 2638 3022 2638 3341 
Q 2638 3675 2398 3904 
Q 2159 4134 1775 4134 
Q 1369 4134 1125 3890 
Q 881 3647 878 3216 
L 300 3275 
Q 359 3922 746 4261 
Q 1134 4600 1788 4600 
Q 2447 4600 2831 4234 
Q 3216 3869 3216 3328 
Q 3216 3053 3103 2787 
Q 2991 2522 2730 2228 
Q 2469 1934 1863 1422 
Q 1356 997 1212 845 
Q 1069 694 975 541 
L 3222 541 
z
" transform="scale(0.015625)"/>
        <path id="ArialMT-30" d="M 266 2259 
Q 266 3072 433 3567 
Q 600 4063 929 4331 
Q 1259 4600 1759 4600 
Q 2128 4600 2406 4451 
Q 2684 4303 2865 4023 
Q 3047 3744 3150 3342 
Q 3253 2941 3253 2259 
Q 3253 1453 3087 958 
Q 2922 463 2592 192 
Q 2263 -78 1759 -78 
Q 1097 -78 719 397 
Q 266 969 266 2259 
z
M 844 2259 
Q 844 1131 1108 757 
Q 1372 384 1759 384 
Q 2147 384 2411 759 
Q 2675 1134 2675 2259 
Q 2675 3391 2411 3762 
Q 2147 4134 1753 4134 
Q 1366 4134 1134 3806 
Q 844 3388 844 2259 
z
" transform="scale(0.015625)"/>
       </defs>
       <use xlink:href="#ArialMT-32"/>
       <use xlink:href="#ArialMT-30" x="55.615234"/>
       <use xlink:href="#ArialMT-30" x="111.230469"/>
       <use xlink:href="#ArialMT-39" x="166.845703"/>
      </g>
     </g>
    </g>
    <g id="xtick_8">
     <g id="line2d_8">
      <path d="M 357.746658 243.524062 
L 357.746658 26.084062 
" clip-path="url(#p322face1ab)" style="fill: none; stroke-dasharray: 0.8,1.32; stroke-dashoffset: 0; stroke: #cccccc; stroke-width: 0.8"/>
     </g>
     <g id="text_8">
      <!-- 2019 -->
      <g style="fill: #262626" transform="translate(346.624783 257.681875)scale(0.1 -0.1)">
       <use xlink:href="#ArialMT-32"/>
       <use xlink:href="#ArialMT-30" x="55.615234"/>
       <use xlink:href="#ArialMT-31" x="111.230469"/>
       <use xlink:href="#ArialMT-39" x="166.845703"/>
      </g>
     </g>
    </g>
    <g id="xtick_9"/>
    <g id="xtick_10"/>
    <g id="xtick_11"/>
    <g id="xtick_12"/>
    <g id="xtick_13"/>
    <g id="xtick_14"/>
    <g id="xtick_15"/>
    <g id="text_9">
     <!-- DATE -->
     <g style="fill: #262626" transform="translate(192.900781 270.827187)scale(0.1 -0.1)">
      <defs>
       <path id="ArialMT-44" d="M 494 0 
L 494 4581 
L 2072 4581 
Q 2606 4581 2888 4516 
Q 3281 4425 3559 4188 
Q 3922 3881 4101 3404 
Q 4281 2928 4281 2316 
Q 4281 1794 4159 1391 
Q 4038 988 3847 723 
Q 3656 459 3429 307 
Q 3203 156 2883 78 
Q 2563 0 2147 0 
L 494 0 
z
M 1100 541 
L 2078 541 
Q 2531 541 2789 625 
Q 3047 709 3200 863 
Q 3416 1078 3536 1442 
Q 3656 1806 3656 2325 
Q 3656 3044 3420 3430 
Q 3184 3816 2847 3947 
Q 2603 4041 2063 4041 
L 1100 4041 
L 1100 541 
z
" transform="scale(0.015625)"/>
       <path id="ArialMT-41" d="M -9 0 
L 1750 4581 
L 2403 4581 
L 4278 0 
L 3588 0 
L 3053 1388 
L 1138 1388 
L 634 0 
L -9 0 
z
M 1313 1881 
L 2866 1881 
L 2388 3150 
Q 2169 3728 2063 4100 
Q 1975 3659 1816 3225 
L 1313 1881 
z
" transform="scale(0.015625)"/>
       <path id="ArialMT-54" d="M 1659 0 
L 1659 4041 
L 150 4041 
L 150 4581 
L 3781 4581 
L 3781 4041 
L 2266 4041 
L 2266 0 
L 1659 0 
z
" transform="scale(0.015625)"/>
       <path id="ArialMT-45" d="M 506 0 
L 506 4581 
L 3819 4581 
L 3819 4041 
L 1113 4041 
L 1113 2638 
L 3647 2638 
L 3647 2100 
L 1113 2100 
L 1113 541 
L 3925 541 
L 3925 0 
L 506 0 
z
" transform="scale(0.015625)"/>
      </defs>
      <use xlink:href="#ArialMT-44"/>
      <use xlink:href="#ArialMT-41" x="72.216797"/>
      <use xlink:href="#ArialMT-54" x="131.541016"/>
      <use xlink:href="#ArialMT-45" x="192.625"/>
     </g>
    </g>
   </g>
   <g id="matplotlib.axis_2">
    <g id="ytick_1">
     <g id="line2d_9">
      <path d="M 38.467188 236.491475 
L 373.267188 236.491475 
" clip-path="url(#p322face1ab)" style="fill: none; stroke-dasharray: 0.8,1.32; stroke-dashoffset: 0; stroke: #cccccc; stroke-width: 0.8"/>
     </g>
     <g id="text_10">
      <!-- 0 -->
      <g style="fill: #262626" transform="translate(25.90625 240.070381)scale(0.1 -0.1)">
       <use xlink:href="#ArialMT-30"/>
      </g>
     </g>
    </g>
    <g id="ytick_2">
     <g id="line2d_10">
      <path d="M 38.467188 188.973993 
L 373.267188 188.973993 
" clip-path="url(#p322face1ab)" style="fill: none; stroke-dasharray: 0.8,1.32; stroke-dashoffset: 0; stroke: #cccccc; stroke-width: 0.8"/>
     </g>
     <g id="text_11">
      <!-- 5 -->
      <g style="fill: #262626" transform="translate(25.90625 192.552899)scale(0.1 -0.1)">
       <use xlink:href="#ArialMT-35"/>
      </g>
     </g>
    </g>
    <g id="ytick_3">
     <g id="line2d_11">
      <path d="M 38.467188 141.45651 
L 373.267188 141.45651 
" clip-path="url(#p322face1ab)" style="fill: none; stroke-dasharray: 0.8,1.32; stroke-dashoffset: 0; stroke: #cccccc; stroke-width: 0.8"/>
     </g>
     <g id="text_12">
      <!-- 10 -->
      <g style="fill: #262626" transform="translate(20.345313 145.035416)scale(0.1 -0.1)">
       <use xlink:href="#ArialMT-31"/>
       <use xlink:href="#ArialMT-30" x="55.615234"/>
      </g>
     </g>
    </g>
    <g id="ytick_4">
     <g id="line2d_12">
      <path d="M 38.467188 93.939028 
L 373.267188 93.939028 
" clip-path="url(#p322face1ab)" style="fill: none; stroke-dasharray: 0.8,1.32; stroke-dashoffset: 0; stroke: #cccccc; stroke-width: 0.8"/>
     </g>
     <g id="text_13">
      <!-- 15 -->
      <g style="fill: #262626" transform="translate(20.345313 97.517934)scale(0.1 -0.1)">
       <use xlink:href="#ArialMT-31"/>
       <use xlink:href="#ArialMT-35" x="55.615234"/>
      </g>
     </g>
    </g>
    <g id="ytick_5">
     <g id="line2d_13">
      <path d="M 38.467188 46.421545 
L 373.267188 46.421545 
" clip-path="url(#p322face1ab)" style="fill: none; stroke-dasharray: 0.8,1.32; stroke-dashoffset: 0; stroke: #cccccc; stroke-width: 0.8"/>
     </g>
     <g id="text_14">
      <!-- 20 -->
      <g style="fill: #262626" transform="translate(20.345313 50.000451)scale(0.1 -0.1)">
       <use xlink:href="#ArialMT-32"/>
       <use xlink:href="#ArialMT-30" x="55.615234"/>
      </g>
     </g>
    </g>
    <g id="text_15">
     <!-- % -->
     <g style="fill: #262626" transform="translate(14.357813 139.250156)rotate(-90)scale(0.1 -0.1)">
      <defs>
       <path id="ArialMT-25" d="M 372 3481 
Q 372 3972 619 4315 
Q 866 4659 1334 4659 
Q 1766 4659 2048 4351 
Q 2331 4044 2331 3447 
Q 2331 2866 2045 2552 
Q 1759 2238 1341 2238 
Q 925 2238 648 2547 
Q 372 2856 372 3481 
z
M 1350 4272 
Q 1141 4272 1002 4090 
Q 863 3909 863 3425 
Q 863 2984 1003 2804 
Q 1144 2625 1350 2625 
Q 1563 2625 1702 2806 
Q 1841 2988 1841 3469 
Q 1841 3913 1700 4092 
Q 1559 4272 1350 4272 
z
M 1353 -169 
L 3859 4659 
L 4316 4659 
L 1819 -169 
L 1353 -169 
z
M 3334 1075 
Q 3334 1569 3581 1911 
Q 3828 2253 4300 2253 
Q 4731 2253 5014 1945 
Q 5297 1638 5297 1041 
Q 5297 459 5011 145 
Q 4725 -169 4303 -169 
Q 3888 -169 3611 142 
Q 3334 453 3334 1075 
z
M 4316 1866 
Q 4103 1866 3964 1684 
Q 3825 1503 3825 1019 
Q 3825 581 3965 400 
Q 4106 219 4313 219 
Q 4528 219 4667 400 
Q 4806 581 4806 1063 
Q 4806 1506 4665 1686 
Q 4525 1866 4316 1866 
z
" transform="scale(0.015625)"/>
      </defs>
      <use xlink:href="#ArialMT-25"/>
     </g>
    </g>
   </g>
   <g id="line2d_14">
    <path d="M 238.016856 133.853713 
L 238.755929 130.052314 
L 239.125466 133.853713 
L 239.495002 120.548818 
L 239.864538 123.399867 
L 240.234075 123.399867 
L 240.973148 125.300566 
L 241.342684 127.201265 
L 241.712221 126.250916 
L 242.081757 129.101965 
L 242.451293 131.002664 
L 242.82083 131.002664 
L 243.190366 132.903363 
L 243.559903 132.903363 
L 243.929439 133.853713 
L 244.298976 130.052314 
L 244.668512 137.655111 
L 245.038048 136.704762 
L 245.407585 134.804062 
L 245.777121 134.804062 
L 246.146658 136.704762 
L 246.516194 131.953014 
L 247.255267 137.655111 
L 247.624803 136.704762 
L 247.99434 140.50616 
L 248.363876 148.108958 
L 248.733413 144.307559 
L 249.102949 143.357209 
L 249.472486 143.357209 
L 249.842022 145.257909 
L 250.211558 144.307559 
L 250.581095 149.059307 
L 250.950631 155.711755 
L 251.320168 149.059307 
L 251.689704 151.910356 
L 252.05924 160.463503 
L 252.428777 152.860706 
L 252.798313 153.811056 
L 253.16785 153.811056 
L 253.537386 150.960007 
L 253.906923 146.208258 
L 254.276459 150.009657 
L 254.645995 150.009657 
L 255.015532 148.108958 
L 255.385068 149.059307 
L 255.754605 153.811056 
L 256.124141 151.910356 
L 256.493678 149.059307 
L 256.863214 150.009657 
L 257.23275 144.307559 
L 257.602287 154.761405 
L 257.971823 152.860706 
L 258.710896 158.562804 
L 259.080433 162.364202 
L 259.449969 156.662104 
L 259.819505 157.612454 
L 260.189042 152.860706 
L 260.558578 152.860706 
L 260.928115 157.612454 
L 261.667188 155.711755 
L 262.036724 158.562804 
L 262.40626 163.314552 
L 262.775797 164.264902 
L 263.145333 160.463503 
L 263.51487 162.364202 
L 263.884406 166.165601 
L 264.253942 165.215251 
L 264.623479 169.967 
L 264.993015 169.01665 
L 265.362552 169.01665 
L 265.732088 168.0663 
L 266.101625 169.967 
L 266.471161 168.0663 
L 266.840697 168.0663 
L 267.210234 169.01665 
L 267.57977 170.917349 
L 267.949307 170.917349 
L 268.318843 169.01665 
L 268.68838 170.917349 
L 269.057916 169.01665 
L 269.427452 165.215251 
L 269.796989 178.520146 
L 270.166525 170.917349 
L 270.536062 171.867699 
L 270.905598 171.867699 
L 271.275135 170.917349 
L 271.644671 169.01665 
L 272.014207 170.917349 
L 272.383744 173.768398 
L 272.75328 175.669097 
L 273.122817 181.371195 
L 273.492353 175.669097 
L 273.861889 179.470496 
L 274.231426 173.768398 
L 274.600962 177.569797 
L 274.970499 170.917349 
L 275.340035 176.619447 
L 275.709572 175.669097 
L 276.079108 177.569797 
L 276.448644 177.569797 
L 276.818181 175.669097 
L 277.187717 174.718748 
L 277.557254 180.420846 
L 278.296327 165.215251 
L 278.665863 171.867699 
L 279.035399 171.867699 
L 279.404936 173.768398 
L 279.774472 170.917349 
L 280.144009 171.867699 
L 280.883082 163.314552 
L 281.252618 164.264902 
L 281.991691 157.612454 
L 282.361227 158.562804 
L 282.730764 157.612454 
L 283.1003 159.513153 
L 283.469837 150.009657 
L 283.839373 157.612454 
L 284.208909 162.364202 
L 284.578446 154.761405 
L 284.947982 156.662104 
L 285.317519 162.364202 
L 285.687055 153.811056 
L 286.056591 150.960007 
L 286.795664 152.860706 
L 287.165201 151.910356 
L 287.534737 154.761405 
L 287.904274 155.711755 
L 288.643346 147.158608 
L 289.012883 152.860706 
L 289.382419 148.108958 
L 289.751956 154.761405 
L 290.121492 150.960007 
L 290.491029 153.811056 
L 290.860565 161.413853 
L 291.230101 150.009657 
L 291.599638 154.761405 
L 291.969174 152.860706 
L 292.338711 154.761405 
L 292.708247 152.860706 
L 293.077784 153.811056 
L 293.44732 158.562804 
L 293.816856 159.513153 
L 294.186393 153.811056 
L 294.555929 156.662104 
L 294.925466 160.463503 
L 295.295002 159.513153 
L 295.664538 163.314552 
L 296.034075 162.364202 
L 296.403611 162.364202 
L 296.773148 158.562804 
L 297.142684 162.364202 
L 297.512221 170.917349 
L 297.881757 165.215251 
L 298.251293 165.215251 
L 298.62083 158.562804 
L 298.990366 167.115951 
L 299.359903 166.165601 
L 299.729439 166.165601 
L 300.098976 169.967 
L 300.468512 169.01665 
L 300.838048 170.917349 
L 301.207585 170.917349 
L 301.946658 169.01665 
L 302.316194 169.01665 
L 302.685731 171.867699 
L 303.055267 175.669097 
L 303.424803 181.371195 
L 303.79434 173.768398 
L 304.163876 172.818049 
L 304.533413 170.917349 
L 304.902949 167.115951 
L 305.272486 170.917349 
L 305.642022 169.01665 
L 306.011558 173.768398 
L 306.381095 172.818049 
L 306.750631 167.115951 
L 307.120168 174.718748 
L 307.489704 164.264902 
L 307.85924 167.115951 
L 308.228777 163.314552 
L 308.96785 163.314552 
L 309.337386 166.165601 
L 309.706923 156.662104 
L 310.076459 163.314552 
L 310.445995 159.513153 
L 310.815532 153.811056 
L 311.185068 154.761405 
L 311.554605 144.307559 
L 311.924141 143.357209 
L 312.663214 133.853713 
L 313.03275 131.002664 
L 313.402287 118.648118 
L 314.510896 94.889377 
L 314.880433 92.038328 
L 315.249969 88.23693 
L 315.619505 91.087979 
L 315.989042 88.23693 
L 316.358578 94.889377 
L 316.728115 92.038328 
L 317.097651 96.790076 
L 317.836724 91.087979 
L 318.20626 86.33623 
L 318.575797 94.889377 
L 318.945333 96.790076 
L 319.31487 97.740426 
L 319.684406 101.541825 
L 320.053942 108.194272 
L 320.423479 102.492174 
L 320.793015 88.23693 
L 321.162552 93.939028 
L 321.532088 90.137629 
L 321.901625 93.939028 
L 322.271161 100.591475 
L 322.640697 103.442524 
L 323.010234 102.492174 
L 323.37977 96.790076 
L 323.749307 98.690776 
L 324.118843 99.641125 
L 324.48838 98.690776 
L 324.857916 102.492174 
L 325.227452 100.591475 
L 325.966525 114.84672 
L 326.336062 106.293573 
L 326.705598 112.946021 
L 327.075135 111.995671 
L 327.814207 117.697769 
L 328.183744 113.89637 
L 328.55328 116.747419 
L 328.922817 118.648118 
L 329.292353 124.350216 
L 329.661889 125.300566 
L 330.031426 121.499167 
L 330.400962 122.449517 
L 330.770499 124.350216 
L 331.140035 122.449517 
L 331.509572 129.101965 
L 331.879108 131.002664 
L 332.248644 126.250916 
L 332.618181 131.953014 
L 332.987717 134.804062 
L 333.357254 133.853713 
L 333.72679 131.002664 
L 334.096327 136.704762 
L 334.465863 132.903363 
L 334.835399 134.804062 
L 335.204936 143.357209 
L 335.574472 147.158608 
L 335.944009 143.357209 
L 336.313545 147.158608 
L 336.683082 153.811056 
L 337.052618 149.059307 
L 337.422154 149.059307 
L 337.791691 146.208258 
L 338.161227 149.059307 
L 338.530764 155.711755 
L 338.9003 159.513153 
L 339.269837 154.761405 
L 339.639373 154.761405 
L 340.008909 157.612454 
L 340.378446 158.562804 
L 340.747982 154.761405 
L 341.117519 156.662104 
L 341.487055 153.811056 
L 341.856591 158.562804 
L 342.226128 157.612454 
L 342.595664 161.413853 
L 342.965201 161.413853 
L 343.334737 164.264902 
L 343.704274 171.867699 
L 344.07381 175.669097 
L 344.443346 169.01665 
L 344.812883 169.967 
L 345.551956 164.264902 
L 345.921492 166.165601 
L 346.291029 164.264902 
L 346.660565 174.718748 
L 347.030101 166.165601 
L 347.399638 153.811056 
L 347.769174 165.215251 
L 348.138711 161.413853 
L 348.508247 165.215251 
L 348.877784 166.165601 
L 349.24732 165.215251 
L 349.616856 174.718748 
L 349.986393 174.718748 
L 350.355929 178.520146 
L 350.725466 174.718748 
L 351.095002 169.01665 
L 351.464538 178.520146 
L 351.834075 172.818049 
L 352.573148 185.172594 
L 352.942684 176.619447 
L 353.312221 184.222244 
L 353.681757 183.271895 
L 354.051293 185.172594 
L 354.42083 180.420846 
L 354.790366 187.073293 
L 355.159903 184.222244 
L 355.529439 188.973993 
L 355.898976 182.321545 
L 356.268512 182.321545 
L 356.638048 179.470496 
L 357.007585 181.371195 
L 357.377121 180.420846 
L 357.746658 182.321545 
L 358.116194 187.073293 
L 358.485731 181.371195 
L 358.855267 186.122944 
L 359.224803 188.023643 
L 359.59434 186.122944 
L 359.963876 188.973993 
L 360.333413 185.172594 
L 360.702949 189.924342 
L 361.072486 182.321545 
L 361.442022 184.222244 
L 361.811558 185.172594 
L 362.181095 182.321545 
L 362.550631 182.321545 
L 362.920168 170.917349 
L 363.289704 35.967699 
L 363.65924 51.173293 
L 364.028777 79.683783 
L 364.398313 92.988678 
L 365.137386 135.754412 
L 365.876459 148.108958 
L 366.245995 143.357209 
L 366.615532 150.960007 
L 366.985068 140.50616 
L 367.354605 158.562804 
L 367.724141 147.158608 
L 368.093678 151.910356 
L 368.463214 138.605461 
L 368.83275 147.158608 
L 369.202287 162.364202 
L 369.571823 163.314552 
L 369.94136 167.115951 
L 370.310896 184.222244 
L 370.680433 187.073293 
L 371.049969 176.619447 
L 371.419505 195.62644 
L 371.789042 187.073293 
L 372.158578 185.172594 
L 372.528115 187.073293 
L 372.897651 181.371195 
L 373.267187 180.420846 
L 373.267187 180.420846 
" clip-path="url(#p322face1ab)" style="fill: none; stroke: #1f77b4; stroke-width: 1.5; stroke-linecap: round"/>
   </g>
   <g id="line2d_15">
    <path d="M 238.016856 171.867699 
L 238.386393 169.967 
L 238.755929 170.917349 
L 239.495002 170.917349 
L 239.864538 171.867699 
L 240.234075 173.768398 
L 240.603611 167.115951 
L 240.973148 172.818049 
L 241.342684 173.768398 
L 242.081757 171.867699 
L 242.451293 173.768398 
L 242.82083 176.619447 
L 243.190366 175.669097 
L 243.559903 176.619447 
L 243.929439 175.669097 
L 244.298976 175.669097 
L 244.668512 176.619447 
L 245.038048 178.520146 
L 245.777121 176.619447 
L 246.146658 179.470496 
L 246.885731 181.371195 
L 247.255267 178.520146 
L 247.624803 181.371195 
L 247.99434 183.271895 
L 248.363876 186.122944 
L 248.733413 185.172594 
L 249.102949 187.073293 
L 249.472486 185.172594 
L 249.842022 188.973993 
L 250.950631 191.825042 
L 251.320168 188.973993 
L 251.689704 191.825042 
L 252.05924 193.725741 
L 252.428777 188.023643 
L 252.798313 188.973993 
L 253.16785 191.825042 
L 253.537386 191.825042 
L 253.906923 193.725741 
L 254.276459 191.825042 
L 254.645995 193.725741 
L 255.015532 190.874692 
L 255.385068 191.825042 
L 255.754605 189.924342 
L 256.124141 191.825042 
L 256.493678 191.825042 
L 256.863214 190.874692 
L 257.23275 190.874692 
L 257.602287 192.775391 
L 257.971823 191.825042 
L 258.34136 194.67609 
L 259.080433 192.775391 
L 259.449969 192.775391 
L 259.819505 193.725741 
L 260.189042 193.725741 
L 260.558578 192.775391 
L 260.928115 194.67609 
L 261.667188 196.57679 
L 262.036724 195.62644 
L 262.40626 196.57679 
L 262.775797 196.57679 
L 263.145333 197.527139 
L 263.51487 197.527139 
L 263.884406 200.378188 
L 264.253942 198.477489 
L 264.993015 198.477489 
L 265.362552 196.57679 
L 265.732088 199.427839 
L 266.101625 201.328538 
L 266.471161 198.477489 
L 266.840697 197.527139 
L 267.210234 199.427839 
L 267.57977 197.527139 
L 268.68838 200.378188 
L 269.057916 203.229237 
L 270.536062 203.229237 
L 270.905598 200.378188 
L 271.275135 202.278888 
L 271.644671 203.229237 
L 272.014207 201.328538 
L 272.383744 204.179587 
L 272.75328 206.080286 
L 273.122817 203.229237 
L 273.492353 204.179587 
L 273.861889 204.179587 
L 274.231426 205.129937 
L 274.600962 205.129937 
L 274.970499 204.179587 
L 275.709572 204.179587 
L 276.079108 201.328538 
L 276.448644 203.229237 
L 276.818181 202.278888 
L 277.187717 203.229237 
L 277.557254 203.229237 
L 277.92679 200.378188 
L 278.296327 201.328538 
L 278.665863 200.378188 
L 279.035399 201.328538 
L 279.404936 199.427839 
L 279.774472 200.378188 
L 280.513545 194.67609 
L 280.883082 194.67609 
L 281.622154 188.973993 
L 281.991691 189.924342 
L 282.361227 186.122944 
L 282.730764 186.122944 
L 283.469837 184.222244 
L 283.839373 184.222244 
L 284.208909 185.172594 
L 284.578446 188.023643 
L 284.947982 187.073293 
L 285.317519 188.973993 
L 285.687055 189.924342 
L 286.056591 187.073293 
L 286.426128 186.122944 
L 286.795664 187.073293 
L 287.165201 185.172594 
L 287.534737 184.222244 
L 287.904274 182.321545 
L 288.27381 183.271895 
L 288.643346 182.321545 
L 289.012883 185.172594 
L 289.382419 185.172594 
L 289.751956 186.122944 
L 290.121492 184.222244 
L 290.491029 186.122944 
L 290.860565 185.172594 
L 291.230101 189.924342 
L 291.599638 188.973993 
L 291.969174 186.122944 
L 292.338711 186.122944 
L 292.708247 188.023643 
L 293.077784 187.073293 
L 293.44732 188.973993 
L 293.816856 189.924342 
L 294.186393 191.825042 
L 294.555929 190.874692 
L 295.295002 190.874692 
L 295.664538 191.825042 
L 296.034075 189.924342 
L 296.403611 191.825042 
L 296.773148 194.67609 
L 297.142684 193.725741 
L 297.512221 190.874692 
L 297.881757 190.874692 
L 298.251293 191.825042 
L 298.62083 189.924342 
L 298.990366 190.874692 
L 299.359903 190.874692 
L 299.729439 193.725741 
L 300.098976 194.67609 
L 300.468512 194.67609 
L 300.838048 197.527139 
L 301.207585 194.67609 
L 301.577121 195.62644 
L 301.946658 197.527139 
L 302.316194 193.725741 
L 302.685731 192.775391 
L 303.055267 197.527139 
L 303.424803 197.527139 
L 303.79434 195.62644 
L 304.902949 195.62644 
L 305.272486 198.477489 
L 305.642022 197.527139 
L 306.011558 194.67609 
L 306.381095 197.527139 
L 306.750631 192.775391 
L 307.120168 194.67609 
L 307.85924 192.775391 
L 308.228777 193.725741 
L 308.598313 191.825042 
L 309.337386 191.825042 
L 309.706923 188.023643 
L 310.076459 188.973993 
L 310.445995 188.973993 
L 310.815532 188.023643 
L 311.185068 185.172594 
L 311.924141 177.569797 
L 312.293678 175.669097 
L 312.663214 169.967 
L 313.03275 162.364202 
L 313.771823 155.711755 
L 314.14136 149.059307 
L 314.510896 146.208258 
L 314.880433 141.45651 
L 315.249969 144.307559 
L 315.619505 146.208258 
L 315.989042 144.307559 
L 316.358578 135.754412 
L 316.728115 131.953014 
L 317.097651 138.605461 
L 317.467188 135.754412 
L 317.836724 139.555811 
L 318.20626 134.804062 
L 318.575797 131.953014 
L 318.945333 133.853713 
L 319.31487 132.903363 
L 319.684406 135.754412 
L 320.053942 141.45651 
L 320.423479 141.45651 
L 320.793015 144.307559 
L 321.162552 143.357209 
L 321.532088 141.45651 
L 321.901625 143.357209 
L 322.271161 146.208258 
L 322.640697 144.307559 
L 323.010234 144.307559 
L 323.37977 142.40686 
L 323.749307 145.257909 
L 324.118843 141.45651 
L 324.48838 150.009657 
L 324.857916 148.108958 
L 325.227452 147.158608 
L 325.596989 147.158608 
L 325.966525 152.860706 
L 326.336062 153.811056 
L 327.444671 159.513153 
L 327.814207 160.463503 
L 328.55328 154.761405 
L 328.922817 155.711755 
L 329.292353 154.761405 
L 329.661889 155.711755 
L 330.031426 157.612454 
L 330.400962 160.463503 
L 330.770499 160.463503 
L 331.140035 159.513153 
L 332.618181 167.115951 
L 332.987717 163.314552 
L 333.357254 165.215251 
L 333.72679 166.165601 
L 334.096327 164.264902 
L 334.465863 168.0663 
L 334.835399 168.0663 
L 335.204936 169.967 
L 335.574472 174.718748 
L 336.683082 177.569797 
L 337.052618 174.718748 
L 337.422154 180.420846 
L 337.791691 178.520146 
L 338.161227 178.520146 
L 338.530764 185.172594 
L 338.9003 182.321545 
L 339.269837 182.321545 
L 339.639373 186.122944 
L 340.008909 185.172594 
L 340.378446 185.172594 
L 340.747982 186.122944 
L 341.117519 184.222244 
L 341.487055 181.371195 
L 341.856591 185.172594 
L 342.226128 184.222244 
L 342.595664 184.222244 
L 342.965201 186.122944 
L 343.334737 187.073293 
L 344.07381 183.271895 
L 344.443346 188.023643 
L 344.812883 188.023643 
L 345.551956 184.222244 
L 345.921492 188.023643 
L 346.660565 188.023643 
L 347.030101 188.973993 
L 347.399638 187.073293 
L 347.769174 184.222244 
L 348.138711 188.973993 
L 348.877784 187.073293 
L 349.24732 189.924342 
L 349.616856 189.924342 
L 349.986393 192.775391 
L 350.355929 191.825042 
L 350.725466 193.725741 
L 351.095002 193.725741 
L 351.464538 188.973993 
L 351.834075 195.62644 
L 352.203611 196.57679 
L 352.573148 194.67609 
L 352.942684 196.57679 
L 353.312221 193.725741 
L 353.681757 193.725741 
L 354.051293 195.62644 
L 354.42083 195.62644 
L 354.790366 199.427839 
L 355.159903 198.477489 
L 355.529439 198.477489 
L 355.898976 199.427839 
L 356.268512 201.328538 
L 356.638048 198.477489 
L 357.007585 203.229237 
L 357.377121 200.378188 
L 358.116194 200.378188 
L 358.485731 201.328538 
L 358.855267 204.179587 
L 359.224803 203.229237 
L 359.59434 200.378188 
L 359.963876 202.278888 
L 360.333413 203.229237 
L 360.702949 203.229237 
L 361.072486 201.328538 
L 361.811558 201.328538 
L 362.181095 199.427839 
L 362.550631 201.328538 
L 362.920168 194.67609 
L 363.289704 69.229937 
L 363.65924 86.33623 
L 364.028777 120.548818 
L 364.398313 134.804062 
L 364.76785 144.307559 
L 365.137386 150.009657 
L 365.506923 158.562804 
L 365.876459 161.413853 
L 366.245995 161.413853 
L 366.615532 169.01665 
L 366.985068 169.01665 
L 367.354605 173.768398 
L 367.724141 170.917349 
L 368.463214 170.917349 
L 368.83275 177.569797 
L 369.202287 180.420846 
L 369.571823 182.321545 
L 369.94136 185.172594 
L 370.310896 187.073293 
L 370.680433 192.775391 
L 371.049969 192.775391 
L 371.419505 193.725741 
L 371.789042 198.477489 
L 372.158578 200.378188 
L 372.528115 200.378188 
L 372.897651 202.278888 
L 373.267187 202.278888 
L 373.267187 202.278888 
" clip-path="url(#p322face1ab)" style="fill: none; stroke: #ff7f0e; stroke-width: 1.5; stroke-linecap: round"/>
   </g>
   <g id="line2d_16">
    <path d="M 238.016856 207.030636 
L 238.386393 206.080286 
L 238.755929 208.931335 
L 239.125466 206.080286 
L 239.864538 206.080286 
L 240.603611 207.980986 
L 240.973148 206.080286 
L 241.712221 204.179587 
L 242.081757 205.129937 
L 242.451293 207.030636 
L 242.82083 206.080286 
L 243.559903 206.080286 
L 243.929439 207.980986 
L 244.668512 209.881685 
L 245.038048 211.782384 
L 245.407585 209.881685 
L 245.777121 208.931335 
L 246.146658 208.931335 
L 246.516194 209.881685 
L 246.885731 208.931335 
L 247.255267 209.881685 
L 247.624803 209.881685 
L 247.99434 212.732734 
L 248.363876 212.732734 
L 249.102949 210.832035 
L 249.472486 212.732734 
L 249.842022 212.732734 
L 250.581095 214.633433 
L 250.950631 214.633433 
L 251.320168 213.683083 
L 251.689704 214.633433 
L 252.428777 210.832035 
L 252.798313 212.732734 
L 253.16785 211.782384 
L 253.537386 212.732734 
L 253.906923 212.732734 
L 254.276459 213.683083 
L 254.645995 213.683083 
L 255.015532 214.633433 
L 255.385068 213.683083 
L 255.754605 213.683083 
L 256.493678 215.583783 
L 256.863214 214.633433 
L 257.23275 214.633433 
L 257.602287 215.583783 
L 257.971823 215.583783 
L 258.34136 216.534132 
L 258.710896 215.583783 
L 259.080433 215.583783 
L 259.449969 214.633433 
L 259.819505 214.633433 
L 260.189042 216.534132 
L 260.558578 216.534132 
L 260.928115 217.484482 
L 261.297651 217.484482 
L 261.667188 215.583783 
L 262.036724 217.484482 
L 262.40626 216.534132 
L 263.145333 216.534132 
L 263.884406 220.335531 
L 264.623479 218.434832 
L 264.993015 218.434832 
L 265.732088 220.335531 
L 266.840697 220.335531 
L 267.210234 219.385181 
L 267.57977 220.335531 
L 267.949307 218.434832 
L 268.318843 218.434832 
L 268.68838 219.385181 
L 269.057916 219.385181 
L 269.427452 218.434832 
L 269.796989 218.434832 
L 270.166525 217.484482 
L 270.536062 218.434832 
L 270.905598 217.484482 
L 271.644671 221.285881 
L 272.014207 220.335531 
L 273.122817 220.335531 
L 273.492353 219.385181 
L 273.861889 221.285881 
L 274.231426 220.335531 
L 274.600962 222.23623 
L 274.970499 221.285881 
L 275.340035 221.285881 
L 275.709572 220.335531 
L 276.079108 218.434832 
L 276.448644 218.434832 
L 276.818181 221.285881 
L 277.187717 222.23623 
L 277.557254 222.23623 
L 277.92679 221.285881 
L 278.296327 221.285881 
L 278.665863 217.484482 
L 279.035399 216.534132 
L 279.404936 216.534132 
L 279.774472 215.583783 
L 280.144009 215.583783 
L 280.513545 214.633433 
L 280.883082 212.732734 
L 281.252618 211.782384 
L 281.622154 208.931335 
L 281.991691 207.980986 
L 282.361227 208.931335 
L 282.730764 208.931335 
L 283.1003 209.881685 
L 283.469837 208.931335 
L 283.839373 208.931335 
L 284.208909 207.980986 
L 284.578446 207.980986 
L 284.947982 209.881685 
L 285.687055 207.980986 
L 286.056591 208.931335 
L 286.426128 208.931335 
L 286.795664 207.980986 
L 287.165201 207.980986 
L 287.534737 207.030636 
L 287.904274 207.980986 
L 288.27381 207.980986 
L 288.643346 207.030636 
L 289.012883 207.030636 
L 289.382419 206.080286 
L 289.751956 206.080286 
L 290.121492 207.030636 
L 290.491029 207.030636 
L 291.230101 208.931335 
L 292.708247 208.931335 
L 293.077784 210.832035 
L 293.44732 211.782384 
L 293.816856 210.832035 
L 294.555929 212.732734 
L 295.295002 212.732734 
L 295.664538 213.683083 
L 297.142684 213.683083 
L 297.512221 214.633433 
L 297.881757 214.633433 
L 298.251293 216.534132 
L 298.62083 214.633433 
L 299.359903 214.633433 
L 299.729439 216.534132 
L 300.098976 216.534132 
L 300.468512 215.583783 
L 301.207585 215.583783 
L 301.577121 216.534132 
L 301.946658 216.534132 
L 302.316194 217.484482 
L 302.685731 219.385181 
L 303.055267 216.534132 
L 303.424803 218.434832 
L 303.79434 219.385181 
L 304.163876 219.385181 
L 304.533413 216.534132 
L 304.902949 218.434832 
L 305.272486 219.385181 
L 306.011558 217.484482 
L 306.381095 217.484482 
L 306.750631 216.534132 
L 307.120168 216.534132 
L 307.489704 217.484482 
L 308.228777 215.583783 
L 308.598313 216.534132 
L 308.96785 216.534132 
L 309.337386 217.484482 
L 309.706923 216.534132 
L 310.076459 216.534132 
L 310.445995 215.583783 
L 310.815532 213.683083 
L 311.185068 212.732734 
L 311.554605 209.881685 
L 311.924141 211.782384 
L 312.293678 207.030636 
L 312.663214 206.080286 
L 313.402287 199.427839 
L 314.14136 195.62644 
L 314.510896 194.67609 
L 314.880433 190.874692 
L 315.989042 190.874692 
L 316.358578 188.973993 
L 316.728115 191.825042 
L 317.467188 189.924342 
L 318.575797 189.924342 
L 318.945333 190.874692 
L 319.684406 194.67609 
L 320.423479 192.775391 
L 320.793015 193.725741 
L 321.162552 192.775391 
L 321.532088 188.973993 
L 321.901625 190.874692 
L 322.271161 195.62644 
L 322.640697 195.62644 
L 323.37977 193.725741 
L 323.749307 193.725741 
L 324.118843 195.62644 
L 324.48838 196.57679 
L 325.227452 196.57679 
L 325.966525 194.67609 
L 326.336062 197.527139 
L 326.705598 195.62644 
L 328.183744 199.427839 
L 328.922817 197.527139 
L 329.292353 197.527139 
L 329.661889 198.477489 
L 330.031426 201.328538 
L 330.400962 199.427839 
L 330.770499 198.477489 
L 331.140035 200.378188 
L 331.509572 199.427839 
L 331.879108 200.378188 
L 332.248644 199.427839 
L 332.618181 199.427839 
L 332.987717 200.378188 
L 333.357254 200.378188 
L 333.72679 204.179587 
L 334.096327 201.328538 
L 334.465863 201.328538 
L 334.835399 204.179587 
L 335.204936 205.129937 
L 335.574472 205.129937 
L 335.944009 204.179587 
L 336.313545 204.179587 
L 337.052618 206.080286 
L 337.422154 205.129937 
L 337.791691 207.030636 
L 338.161227 206.080286 
L 338.530764 208.931335 
L 338.9003 207.980986 
L 339.269837 206.080286 
L 339.639373 209.881685 
L 340.008909 209.881685 
L 340.378446 210.832035 
L 340.747982 213.683083 
L 341.117519 210.832035 
L 341.487055 209.881685 
L 341.856591 212.732734 
L 342.226128 212.732734 
L 342.595664 213.683083 
L 342.965201 212.732734 
L 344.812883 212.732734 
L 345.182419 211.782384 
L 345.551956 212.732734 
L 346.291029 212.732734 
L 346.660565 213.683083 
L 347.030101 211.782384 
L 347.399638 212.732734 
L 347.769174 211.782384 
L 348.138711 213.683083 
L 348.508247 212.732734 
L 348.877784 212.732734 
L 349.24732 213.683083 
L 349.616856 212.732734 
L 349.986393 212.732734 
L 350.355929 214.633433 
L 351.095002 214.633433 
L 351.464538 213.683083 
L 351.834075 214.633433 
L 352.203611 216.534132 
L 352.573148 216.534132 
L 352.942684 215.583783 
L 353.312221 216.534132 
L 353.681757 215.583783 
L 354.051293 215.583783 
L 354.790366 217.484482 
L 355.159903 214.633433 
L 355.529439 215.583783 
L 355.898976 217.484482 
L 356.638048 217.484482 
L 357.007585 215.583783 
L 357.377121 215.583783 
L 357.746658 213.683083 
L 358.116194 215.583783 
L 358.485731 216.534132 
L 359.59434 216.534132 
L 359.963876 215.583783 
L 360.333413 217.484482 
L 360.702949 217.484482 
L 361.072486 216.534132 
L 361.442022 218.434832 
L 361.811558 217.484482 
L 362.181095 217.484482 
L 362.550631 218.434832 
L 362.920168 212.732734 
L 363.289704 156.662104 
L 363.65924 166.165601 
L 364.028777 171.867699 
L 364.398313 172.818049 
L 364.76785 187.073293 
L 365.506923 196.57679 
L 365.876459 196.57679 
L 366.245995 200.378188 
L 366.615532 198.477489 
L 366.985068 200.378188 
L 367.354605 201.328538 
L 367.724141 203.229237 
L 368.093678 207.030636 
L 368.463214 204.179587 
L 368.83275 207.030636 
L 369.202287 210.832035 
L 369.571823 212.732734 
L 369.94136 213.683083 
L 370.310896 215.583783 
L 370.680433 216.534132 
L 371.049969 214.633433 
L 371.419505 215.583783 
L 371.789042 217.484482 
L 372.528115 217.484482 
L 372.897651 216.534132 
L 373.267187 217.484482 
L 373.267187 217.484482 
" clip-path="url(#p322face1ab)" style="fill: none; stroke: #2ca02c; stroke-width: 1.5; stroke-linecap: round"/>
   </g>
   <g id="line2d_17">
    <path d="M 273.492353 221.285881 
L 273.861889 221.285881 
L 274.231426 220.335531 
L 274.600962 225.087279 
L 274.970499 226.987979 
L 275.709572 214.633433 
L 276.448644 216.534132 
L 276.818181 221.285881 
L 277.187717 223.18658 
L 277.557254 224.13693 
L 277.92679 223.18658 
L 278.296327 220.335531 
L 278.665863 220.335531 
L 279.035399 222.23623 
L 279.404936 220.335531 
L 279.774472 216.534132 
L 280.144009 210.832035 
L 280.513545 210.832035 
L 280.883082 212.732734 
L 281.252618 212.732734 
L 281.622154 211.782384 
L 281.991691 215.583783 
L 282.361227 211.782384 
L 282.730764 212.732734 
L 283.1003 217.484482 
L 283.469837 213.683083 
L 283.839373 211.782384 
L 284.578446 201.328538 
L 284.947982 200.378188 
L 285.317519 204.179587 
L 285.687055 209.881685 
L 286.056591 210.832035 
L 286.426128 209.881685 
L 286.795664 210.832035 
L 287.165201 214.633433 
L 287.534737 212.732734 
L 287.904274 207.030636 
L 288.27381 207.980986 
L 288.643346 202.278888 
L 289.012883 205.129937 
L 289.382419 205.129937 
L 289.751956 206.080286 
L 290.121492 215.583783 
L 290.491029 211.782384 
L 290.860565 211.782384 
L 291.230101 210.832035 
L 291.599638 208.931335 
L 291.969174 213.683083 
L 292.338711 214.633433 
L 292.708247 210.832035 
L 293.077784 210.832035 
L 293.44732 208.931335 
L 293.816856 207.980986 
L 294.555929 216.534132 
L 294.925466 215.583783 
L 295.295002 218.434832 
L 295.664538 216.534132 
L 296.034075 216.534132 
L 296.403611 217.484482 
L 296.773148 217.484482 
L 297.142684 220.335531 
L 297.512221 216.534132 
L 297.881757 209.881685 
L 298.251293 211.782384 
L 298.62083 215.583783 
L 298.990366 216.534132 
L 299.359903 221.285881 
L 299.729439 220.335531 
L 300.098976 222.23623 
L 300.468512 219.385181 
L 300.838048 221.285881 
L 301.207585 220.335531 
L 301.577121 221.285881 
L 301.946658 221.285881 
L 302.316194 214.633433 
L 302.685731 217.484482 
L 303.055267 216.534132 
L 303.424803 220.335531 
L 304.163876 222.23623 
L 304.533413 220.335531 
L 304.902949 220.335531 
L 305.272486 219.385181 
L 305.642022 224.13693 
L 306.011558 221.285881 
L 306.750631 214.633433 
L 307.120168 211.782384 
L 307.489704 218.434832 
L 307.85924 220.335531 
L 308.228777 220.335531 
L 308.598313 221.285881 
L 308.96785 219.385181 
L 309.706923 221.285881 
L 310.076459 221.285881 
L 310.445995 215.583783 
L 310.815532 212.732734 
L 311.185068 210.832035 
L 311.554605 210.832035 
L 311.924141 213.683083 
L 312.293678 208.931335 
L 312.663214 207.980986 
L 313.03275 204.179587 
L 313.402287 203.229237 
L 313.771823 203.229237 
L 314.14136 202.278888 
L 314.510896 202.278888 
L 314.880433 205.129937 
L 315.619505 188.973993 
L 315.989042 193.725741 
L 316.728115 199.427839 
L 317.097651 196.57679 
L 317.467188 199.427839 
L 317.836724 194.67609 
L 318.20626 196.57679 
L 318.575797 199.427839 
L 318.945333 203.229237 
L 319.31487 205.129937 
L 320.053942 189.924342 
L 320.423479 189.924342 
L 321.162552 200.378188 
L 321.532088 199.427839 
L 321.901625 203.229237 
L 322.271161 201.328538 
L 322.640697 204.179587 
L 323.010234 202.278888 
L 323.37977 207.030636 
L 323.749307 200.378188 
L 324.48838 202.278888 
L 324.857916 199.427839 
L 325.227452 202.278888 
L 325.596989 202.278888 
L 325.966525 200.378188 
L 326.336062 202.278888 
L 326.705598 199.427839 
L 327.444671 203.229237 
L 328.183744 208.931335 
L 328.55328 203.229237 
L 328.922817 195.62644 
L 329.292353 196.57679 
L 329.661889 205.129937 
L 330.400962 205.129937 
L 331.140035 203.229237 
L 331.509572 200.378188 
L 331.879108 206.080286 
L 332.248644 207.980986 
L 332.618181 204.179587 
L 332.987717 197.527139 
L 333.357254 197.527139 
L 333.72679 205.129937 
L 334.096327 207.030636 
L 334.465863 205.129937 
L 334.835399 207.030636 
L 335.204936 209.881685 
L 335.574472 207.980986 
L 335.944009 210.832035 
L 336.313545 207.980986 
L 336.683082 210.832035 
L 337.052618 210.832035 
L 337.422154 207.980986 
L 337.791691 206.080286 
L 338.161227 205.129937 
L 338.530764 210.832035 
L 338.9003 210.832035 
L 339.639373 212.732734 
L 340.008909 210.832035 
L 340.378446 212.732734 
L 340.747982 218.434832 
L 341.117519 216.534132 
L 341.487055 216.534132 
L 341.856591 211.782384 
L 342.226128 205.129937 
L 342.595664 211.782384 
L 342.965201 215.583783 
L 343.334737 213.683083 
L 343.704274 212.732734 
L 344.07381 214.633433 
L 344.443346 213.683083 
L 344.812883 215.583783 
L 345.182419 212.732734 
L 345.551956 219.385181 
L 345.921492 218.434832 
L 346.660565 206.080286 
L 347.030101 207.980986 
L 348.138711 218.434832 
L 348.508247 216.534132 
L 348.877784 213.683083 
L 349.24732 218.434832 
L 349.616856 215.583783 
L 349.986393 217.484482 
L 350.355929 216.534132 
L 350.725466 209.881685 
L 351.095002 209.881685 
L 351.464538 208.931335 
L 351.834075 217.484482 
L 352.203611 220.335531 
L 352.573148 219.385181 
L 352.942684 219.385181 
L 353.312221 214.633433 
L 353.681757 215.583783 
L 354.051293 219.385181 
L 354.42083 221.285881 
L 354.790366 220.335531 
L 355.159903 211.782384 
L 355.529439 207.980986 
L 355.898976 208.931335 
L 356.268512 218.434832 
L 356.638048 218.434832 
L 357.746658 215.583783 
L 358.116194 219.385181 
L 358.485731 219.385181 
L 358.855267 222.23623 
L 359.224803 220.335531 
L 359.963876 208.931335 
L 360.333413 212.732734 
L 360.702949 219.385181 
L 361.072486 217.484482 
L 361.442022 216.534132 
L 361.811558 219.385181 
L 362.181095 217.484482 
L 362.550631 220.335531 
L 362.920168 212.732734 
L 363.289704 172.818049 
L 363.65924 183.271895 
L 364.028777 183.271895 
L 364.398313 179.470496 
L 365.137386 199.427839 
L 365.506923 202.278888 
L 365.876459 203.229237 
L 366.245995 203.229237 
L 366.615532 201.328538 
L 366.985068 202.278888 
L 367.354605 202.278888 
L 367.724141 210.832035 
L 368.093678 212.732734 
L 368.83275 206.080286 
L 369.202287 212.732734 
L 369.94136 219.385181 
L 370.680433 225.087279 
L 371.049969 224.13693 
L 371.419505 218.434832 
L 371.789042 220.335531 
L 372.158578 219.385181 
L 372.528115 219.385181 
L 373.267187 210.832035 
L 373.267187 210.832035 
" clip-path="url(#p322face1ab)" style="fill: none; stroke: #d62728; stroke-width: 1.5; stroke-linecap: round"/>
   </g>
   <g id="line2d_18">
    <path d="M 273.492353 223.18658 
L 273.861889 223.18658 
L 274.231426 227.938328 
L 274.600962 230.789377 
L 274.970499 228.888678 
L 275.340035 229.839028 
L 275.709572 229.839028 
L 276.079108 224.13693 
L 276.448644 229.839028 
L 276.818181 231.739727 
L 277.187717 227.938328 
L 277.557254 229.839028 
L 277.92679 232.690076 
L 278.296327 233.640426 
L 278.665863 229.839028 
L 279.035399 230.789377 
L 279.404936 227.938328 
L 279.774472 226.037629 
L 280.144009 221.285881 
L 280.513545 218.434832 
L 280.883082 226.987979 
L 281.252618 223.18658 
L 281.622154 224.13693 
L 281.991691 221.285881 
L 282.361227 221.285881 
L 282.730764 218.434832 
L 283.1003 221.285881 
L 283.469837 221.285881 
L 283.839373 217.484482 
L 284.208909 225.087279 
L 284.578446 221.285881 
L 284.947982 223.18658 
L 285.317519 220.335531 
L 285.687055 224.13693 
L 286.056591 224.13693 
L 286.426128 216.534132 
L 286.795664 220.335531 
L 287.165201 221.285881 
L 287.534737 211.782384 
L 287.904274 221.285881 
L 288.643346 217.484482 
L 289.012883 216.534132 
L 289.382419 218.434832 
L 289.751956 207.030636 
L 290.121492 207.030636 
L 290.860565 223.18658 
L 291.230101 218.434832 
L 291.599638 221.285881 
L 291.969174 215.583783 
L 292.338711 216.534132 
L 292.708247 219.385181 
L 293.077784 215.583783 
L 293.816856 217.484482 
L 294.186393 219.385181 
L 294.555929 225.087279 
L 295.295002 219.385181 
L 295.664538 221.285881 
L 296.034075 216.534132 
L 296.403611 223.18658 
L 296.773148 215.583783 
L 297.142684 217.484482 
L 297.512221 212.732734 
L 297.881757 224.13693 
L 298.251293 227.938328 
L 298.62083 221.285881 
L 298.990366 227.938328 
L 299.359903 222.23623 
L 299.729439 220.335531 
L 300.098976 219.385181 
L 300.468512 223.18658 
L 300.838048 222.23623 
L 301.207585 225.087279 
L 301.577121 224.13693 
L 301.946658 220.335531 
L 302.316194 224.13693 
L 302.685731 223.18658 
L 303.055267 225.087279 
L 303.424803 225.087279 
L 303.79434 223.18658 
L 304.163876 226.037629 
L 304.533413 224.13693 
L 304.902949 224.13693 
L 305.272486 230.789377 
L 305.642022 227.938328 
L 306.011558 231.739727 
L 306.381095 224.13693 
L 306.750631 225.087279 
L 307.120168 223.18658 
L 307.489704 220.335531 
L 307.85924 220.335531 
L 308.228777 212.732734 
L 308.598313 215.583783 
L 308.96785 220.335531 
L 309.337386 219.385181 
L 309.706923 220.335531 
L 310.076459 222.23623 
L 310.445995 220.335531 
L 310.815532 217.484482 
L 311.185068 213.683083 
L 311.554605 214.633433 
L 311.924141 217.484482 
L 312.293678 211.782384 
L 312.663214 213.683083 
L 313.03275 216.534132 
L 313.402287 211.782384 
L 313.771823 217.484482 
L 314.14136 219.385181 
L 314.510896 220.335531 
L 315.249969 203.229237 
L 315.619505 202.278888 
L 315.989042 215.583783 
L 316.358578 209.881685 
L 316.728115 217.484482 
L 317.097651 217.484482 
L 317.467188 210.832035 
L 318.20626 225.087279 
L 318.575797 223.18658 
L 318.945333 224.13693 
L 319.31487 222.23623 
L 319.684406 224.13693 
L 320.053942 218.434832 
L 320.793015 209.881685 
L 321.162552 217.484482 
L 321.532088 212.732734 
L 321.901625 206.080286 
L 322.271161 211.782384 
L 322.640697 211.782384 
L 323.010234 210.832035 
L 323.37977 217.484482 
L 323.749307 220.335531 
L 324.48838 214.633433 
L 324.857916 218.434832 
L 325.227452 216.534132 
L 325.596989 205.129937 
L 325.966525 206.080286 
L 326.336062 203.229237 
L 326.705598 204.179587 
L 327.075135 207.030636 
L 327.444671 212.732734 
L 327.814207 216.534132 
L 328.183744 212.732734 
L 329.292353 209.881685 
L 329.661889 214.633433 
L 330.770499 217.484482 
L 331.140035 210.832035 
L 331.509572 212.732734 
L 331.879108 218.434832 
L 332.248644 219.385181 
L 332.618181 218.434832 
L 332.987717 216.534132 
L 333.357254 205.129937 
L 333.72679 212.732734 
L 334.096327 217.484482 
L 334.465863 212.732734 
L 334.835399 223.18658 
L 335.204936 223.18658 
L 335.574472 220.335531 
L 335.944009 213.683083 
L 336.313545 213.683083 
L 336.683082 221.285881 
L 337.422154 209.881685 
L 337.791691 219.385181 
L 338.161227 212.732734 
L 338.530764 222.23623 
L 338.9003 220.335531 
L 339.269837 215.583783 
L 339.639373 218.434832 
L 340.008909 219.385181 
L 340.378446 217.484482 
L 340.747982 220.335531 
L 341.117519 217.484482 
L 341.487055 221.285881 
L 341.856591 216.534132 
L 342.226128 221.285881 
L 342.595664 223.18658 
L 342.965201 216.534132 
L 343.334737 221.285881 
L 343.704274 223.18658 
L 344.07381 221.285881 
L 344.812883 226.987979 
L 345.182419 221.285881 
L 345.551956 221.285881 
L 345.921492 216.534132 
L 346.291029 223.18658 
L 346.660565 217.484482 
L 347.030101 216.534132 
L 347.399638 222.23623 
L 347.769174 217.484482 
L 348.138711 225.087279 
L 348.508247 218.434832 
L 348.877784 225.087279 
L 349.24732 216.534132 
L 349.986393 228.888678 
L 350.355929 229.839028 
L 350.725466 227.938328 
L 351.464538 213.683083 
L 351.834075 222.23623 
L 352.203611 219.385181 
L 352.573148 223.18658 
L 352.942684 221.285881 
L 353.312221 222.23623 
L 353.681757 217.484482 
L 354.051293 215.583783 
L 354.42083 222.23623 
L 354.790366 221.285881 
L 355.159903 218.434832 
L 355.529439 221.285881 
L 355.898976 219.385181 
L 356.268512 221.285881 
L 356.638048 226.987979 
L 357.007585 227.938328 
L 357.377121 224.13693 
L 357.746658 224.13693 
L 358.116194 223.18658 
L 358.485731 226.037629 
L 358.855267 227.938328 
L 359.224803 226.987979 
L 359.59434 225.087279 
L 359.963876 227.938328 
L 360.333413 221.285881 
L 360.702949 227.938328 
L 361.072486 230.789377 
L 361.442022 226.037629 
L 361.811558 226.037629 
L 362.181095 227.938328 
L 362.550631 225.087279 
L 362.920168 218.434832 
L 363.289704 206.080286 
L 363.65924 203.229237 
L 364.028777 193.725741 
L 364.398313 202.278888 
L 364.76785 201.328538 
L 365.137386 217.484482 
L 365.506923 218.434832 
L 365.876459 218.434832 
L 366.245995 223.18658 
L 366.615532 214.633433 
L 366.985068 221.285881 
L 367.354605 221.285881 
L 367.724141 225.087279 
L 368.093678 223.18658 
L 368.463214 209.881685 
L 368.83275 225.087279 
L 369.202287 220.335531 
L 369.571823 221.285881 
L 370.310896 227.938328 
L 370.680433 226.037629 
L 371.049969 226.037629 
L 371.419505 224.13693 
L 371.789042 226.987979 
L 372.158578 232.690076 
L 372.528115 231.739727 
L 372.897651 225.087279 
L 373.267187 225.087279 
L 373.267187 225.087279 
" clip-path="url(#p322face1ab)" style="fill: none; stroke: #9467bd; stroke-width: 1.5; stroke-linecap: round"/>
   </g>
   <g id="patch_3">
    <path d="M 38.467188 243.524062 
L 38.467188 26.084062 
" style="fill: none; stroke: #cccccc; stroke-width: 0.8; stroke-linejoin: miter; stroke-linecap: square"/>
   </g>
   <g id="patch_4">
    <path d="M 373.267188 243.524062 
L 373.267188 26.084062 
" style="fill: none; stroke: #cccccc; stroke-width: 0.8; stroke-linejoin: miter; stroke-linecap: square"/>
   </g>
   <g id="patch_5">
    <path d="M 38.467187 243.524062 
L 373.267187 243.524062 
" style="fill: none; stroke: #cccccc; stroke-width: 0.8; stroke-linejoin: miter; stroke-linecap: square"/>
   </g>
   <g id="patch_6">
    <path d="M 38.467187 26.084062 
L 373.267187 26.084062 
" style="fill: none; stroke: #cccccc; stroke-width: 0.8; stroke-linejoin: miter; stroke-linecap: square"/>
   </g>
   <g id="text_16">
    <!-- Unemployment Rate by Education -->
    <g style="fill: #262626" transform="translate(69.302031 20.084062)scale(0.18 -0.18)">
     <defs>
      <path id="ArialMT-55" d="M 3500 4581 
L 4106 4581 
L 4106 1934 
Q 4106 1244 3950 837 
Q 3794 431 3386 176 
Q 2978 -78 2316 -78 
Q 1672 -78 1262 144 
Q 853 366 678 786 
Q 503 1206 503 1934 
L 503 4581 
L 1109 4581 
L 1109 1938 
Q 1109 1341 1220 1058 
Q 1331 775 1601 622 
Q 1872 469 2263 469 
Q 2931 469 3215 772 
Q 3500 1075 3500 1938 
L 3500 4581 
z
" transform="scale(0.015625)"/>
      <path id="ArialMT-6e" d="M 422 0 
L 422 3319 
L 928 3319 
L 928 2847 
Q 1294 3394 1984 3394 
Q 2284 3394 2536 3286 
Q 2788 3178 2913 3003 
Q 3038 2828 3088 2588 
Q 3119 2431 3119 2041 
L 3119 0 
L 2556 0 
L 2556 2019 
Q 2556 2363 2490 2533 
Q 2425 2703 2258 2804 
Q 2091 2906 1866 2906 
Q 1506 2906 1245 2678 
Q 984 2450 984 1813 
L 984 0 
L 422 0 
z
" transform="scale(0.015625)"/>
      <path id="ArialMT-65" d="M 2694 1069 
L 3275 997 
Q 3138 488 2766 206 
Q 2394 -75 1816 -75 
Q 1088 -75 661 373 
Q 234 822 234 1631 
Q 234 2469 665 2931 
Q 1097 3394 1784 3394 
Q 2450 3394 2872 2941 
Q 3294 2488 3294 1666 
Q 3294 1616 3291 1516 
L 816 1516 
Q 847 969 1125 678 
Q 1403 388 1819 388 
Q 2128 388 2347 550 
Q 2566 713 2694 1069 
z
M 847 1978 
L 2700 1978 
Q 2663 2397 2488 2606 
Q 2219 2931 1791 2931 
Q 1403 2931 1139 2672 
Q 875 2413 847 1978 
z
" transform="scale(0.015625)"/>
      <path id="ArialMT-6d" d="M 422 0 
L 422 3319 
L 925 3319 
L 925 2853 
Q 1081 3097 1340 3245 
Q 1600 3394 1931 3394 
Q 2300 3394 2536 3241 
Q 2772 3088 2869 2813 
Q 3263 3394 3894 3394 
Q 4388 3394 4653 3120 
Q 4919 2847 4919 2278 
L 4919 0 
L 4359 0 
L 4359 2091 
Q 4359 2428 4304 2576 
Q 4250 2725 4106 2815 
Q 3963 2906 3769 2906 
Q 3419 2906 3187 2673 
Q 2956 2441 2956 1928 
L 2956 0 
L 2394 0 
L 2394 2156 
Q 2394 2531 2256 2718 
Q 2119 2906 1806 2906 
Q 1569 2906 1367 2781 
Q 1166 2656 1075 2415 
Q 984 2175 984 1722 
L 984 0 
L 422 0 
z
" transform="scale(0.015625)"/>
      <path id="ArialMT-70" d="M 422 -1272 
L 422 3319 
L 934 3319 
L 934 2888 
Q 1116 3141 1344 3267 
Q 1572 3394 1897 3394 
Q 2322 3394 2647 3175 
Q 2972 2956 3137 2557 
Q 3303 2159 3303 1684 
Q 3303 1175 3120 767 
Q 2938 359 2589 142 
Q 2241 -75 1856 -75 
Q 1575 -75 1351 44 
Q 1128 163 984 344 
L 984 -1272 
L 422 -1272 
z
M 931 1641 
Q 931 1000 1190 694 
Q 1450 388 1819 388 
Q 2194 388 2461 705 
Q 2728 1022 2728 1688 
Q 2728 2322 2467 2637 
Q 2206 2953 1844 2953 
Q 1484 2953 1207 2617 
Q 931 2281 931 1641 
z
" transform="scale(0.015625)"/>
      <path id="ArialMT-6c" d="M 409 0 
L 409 4581 
L 972 4581 
L 972 0 
L 409 0 
z
" transform="scale(0.015625)"/>
      <path id="ArialMT-6f" d="M 213 1659 
Q 213 2581 725 3025 
Q 1153 3394 1769 3394 
Q 2453 3394 2887 2945 
Q 3322 2497 3322 1706 
Q 3322 1066 3130 698 
Q 2938 331 2570 128 
Q 2203 -75 1769 -75 
Q 1072 -75 642 372 
Q 213 819 213 1659 
z
M 791 1659 
Q 791 1022 1069 705 
Q 1347 388 1769 388 
Q 2188 388 2466 706 
Q 2744 1025 2744 1678 
Q 2744 2294 2464 2611 
Q 2184 2928 1769 2928 
Q 1347 2928 1069 2612 
Q 791 2297 791 1659 
z
" transform="scale(0.015625)"/>
      <path id="ArialMT-79" d="M 397 -1278 
L 334 -750 
Q 519 -800 656 -800 
Q 844 -800 956 -737 
Q 1069 -675 1141 -563 
Q 1194 -478 1313 -144 
Q 1328 -97 1363 -6 
L 103 3319 
L 709 3319 
L 1400 1397 
Q 1534 1031 1641 628 
Q 1738 1016 1872 1384 
L 2581 3319 
L 3144 3319 
L 1881 -56 
Q 1678 -603 1566 -809 
Q 1416 -1088 1222 -1217 
Q 1028 -1347 759 -1347 
Q 597 -1347 397 -1278 
z
" transform="scale(0.015625)"/>
      <path id="ArialMT-74" d="M 1650 503 
L 1731 6 
Q 1494 -44 1306 -44 
Q 1000 -44 831 53 
Q 663 150 594 308 
Q 525 466 525 972 
L 525 2881 
L 113 2881 
L 113 3319 
L 525 3319 
L 525 4141 
L 1084 4478 
L 1084 3319 
L 1650 3319 
L 1650 2881 
L 1084 2881 
L 1084 941 
Q 1084 700 1114 631 
Q 1144 563 1211 522 
Q 1278 481 1403 481 
Q 1497 481 1650 503 
z
" transform="scale(0.015625)"/>
      <path id="ArialMT-20" transform="scale(0.015625)"/>
      <path id="ArialMT-52" d="M 503 0 
L 503 4581 
L 2534 4581 
Q 3147 4581 3465 4457 
Q 3784 4334 3975 4021 
Q 4166 3709 4166 3331 
Q 4166 2844 3850 2509 
Q 3534 2175 2875 2084 
Q 3116 1969 3241 1856 
Q 3506 1613 3744 1247 
L 4541 0 
L 3778 0 
L 3172 953 
Q 2906 1366 2734 1584 
Q 2563 1803 2427 1890 
Q 2291 1978 2150 2013 
Q 2047 2034 1813 2034 
L 1109 2034 
L 1109 0 
L 503 0 
z
M 1109 2559 
L 2413 2559 
Q 2828 2559 3062 2645 
Q 3297 2731 3419 2920 
Q 3541 3109 3541 3331 
Q 3541 3656 3305 3865 
Q 3069 4075 2559 4075 
L 1109 4075 
L 1109 2559 
z
" transform="scale(0.015625)"/>
      <path id="ArialMT-61" d="M 2588 409 
Q 2275 144 1986 34 
Q 1697 -75 1366 -75 
Q 819 -75 525 192 
Q 231 459 231 875 
Q 231 1119 342 1320 
Q 453 1522 633 1644 
Q 813 1766 1038 1828 
Q 1203 1872 1538 1913 
Q 2219 1994 2541 2106 
Q 2544 2222 2544 2253 
Q 2544 2597 2384 2738 
Q 2169 2928 1744 2928 
Q 1347 2928 1158 2789 
Q 969 2650 878 2297 
L 328 2372 
Q 403 2725 575 2942 
Q 747 3159 1072 3276 
Q 1397 3394 1825 3394 
Q 2250 3394 2515 3294 
Q 2781 3194 2906 3042 
Q 3031 2891 3081 2659 
Q 3109 2516 3109 2141 
L 3109 1391 
Q 3109 606 3145 398 
Q 3181 191 3288 0 
L 2700 0 
Q 2613 175 2588 409 
z
M 2541 1666 
Q 2234 1541 1622 1453 
Q 1275 1403 1131 1340 
Q 988 1278 909 1158 
Q 831 1038 831 891 
Q 831 666 1001 516 
Q 1172 366 1500 366 
Q 1825 366 2078 508 
Q 2331 650 2450 897 
Q 2541 1088 2541 1459 
L 2541 1666 
z
" transform="scale(0.015625)"/>
      <path id="ArialMT-62" d="M 941 0 
L 419 0 
L 419 4581 
L 981 4581 
L 981 2947 
Q 1338 3394 1891 3394 
Q 2197 3394 2470 3270 
Q 2744 3147 2920 2923 
Q 3097 2700 3197 2384 
Q 3297 2069 3297 1709 
Q 3297 856 2875 390 
Q 2453 -75 1863 -75 
Q 1275 -75 941 416 
L 941 0 
z
M 934 1684 
Q 934 1088 1097 822 
Q 1363 388 1816 388 
Q 2184 388 2453 708 
Q 2722 1028 2722 1663 
Q 2722 2313 2464 2622 
Q 2206 2931 1841 2931 
Q 1472 2931 1203 2611 
Q 934 2291 934 1684 
z
" transform="scale(0.015625)"/>
      <path id="ArialMT-64" d="M 2575 0 
L 2575 419 
Q 2259 -75 1647 -75 
Q 1250 -75 917 144 
Q 584 363 401 755 
Q 219 1147 219 1656 
Q 219 2153 384 2558 
Q 550 2963 881 3178 
Q 1213 3394 1622 3394 
Q 1922 3394 2156 3267 
Q 2391 3141 2538 2938 
L 2538 4581 
L 3097 4581 
L 3097 0 
L 2575 0 
z
M 797 1656 
Q 797 1019 1065 703 
Q 1334 388 1700 388 
Q 2069 388 2326 689 
Q 2584 991 2584 1609 
Q 2584 2291 2321 2609 
Q 2059 2928 1675 2928 
Q 1300 2928 1048 2622 
Q 797 2316 797 1656 
z
" transform="scale(0.015625)"/>
      <path id="ArialMT-75" d="M 2597 0 
L 2597 488 
Q 2209 -75 1544 -75 
Q 1250 -75 995 37 
Q 741 150 617 320 
Q 494 491 444 738 
Q 409 903 409 1263 
L 409 3319 
L 972 3319 
L 972 1478 
Q 972 1038 1006 884 
Q 1059 663 1231 536 
Q 1403 409 1656 409 
Q 1909 409 2131 539 
Q 2353 669 2445 892 
Q 2538 1116 2538 1541 
L 2538 3319 
L 3100 3319 
L 3100 0 
L 2597 0 
z
" transform="scale(0.015625)"/>
      <path id="ArialMT-63" d="M 2588 1216 
L 3141 1144 
Q 3050 572 2676 248 
Q 2303 -75 1759 -75 
Q 1078 -75 664 370 
Q 250 816 250 1647 
Q 250 2184 428 2587 
Q 606 2991 970 3192 
Q 1334 3394 1763 3394 
Q 2303 3394 2647 3120 
Q 2991 2847 3088 2344 
L 2541 2259 
Q 2463 2594 2264 2762 
Q 2066 2931 1784 2931 
Q 1359 2931 1093 2626 
Q 828 2322 828 1663 
Q 828 994 1084 691 
Q 1341 388 1753 388 
Q 2084 388 2306 591 
Q 2528 794 2588 1216 
z
" transform="scale(0.015625)"/>
      <path id="ArialMT-69" d="M 425 3934 
L 425 4581 
L 988 4581 
L 988 3934 
L 425 3934 
z
M 425 0 
L 425 3319 
L 988 3319 
L 988 0 
L 425 0 
z
" transform="scale(0.015625)"/>
     </defs>
     <use xlink:href="#ArialMT-55"/>
     <use xlink:href="#ArialMT-6e" x="72.216797"/>
     <use xlink:href="#ArialMT-65" x="127.832031"/>
     <use xlink:href="#ArialMT-6d" x="183.447266"/>
     <use xlink:href="#ArialMT-70" x="266.748047"/>
     <use xlink:href="#ArialMT-6c" x="322.363281"/>
     <use xlink:href="#ArialMT-6f" x="344.580078"/>
     <use xlink:href="#ArialMT-79" x="400.195312"/>
     <use xlink:href="#ArialMT-6d" x="450.195312"/>
     <use xlink:href="#ArialMT-65" x="533.496094"/>
     <use xlink:href="#ArialMT-6e" x="589.111328"/>
     <use xlink:href="#ArialMT-74" x="644.726562"/>
     <use xlink:href="#ArialMT-20" x="672.509766"/>
     <use xlink:href="#ArialMT-52" x="700.292969"/>
     <use xlink:href="#ArialMT-61" x="772.509766"/>
     <use xlink:href="#ArialMT-74" x="828.125"/>
     <use xlink:href="#ArialMT-65" x="855.908203"/>
     <use xlink:href="#ArialMT-20" x="911.523438"/>
     <use xlink:href="#ArialMT-62" x="939.306641"/>
     <use xlink:href="#ArialMT-79" x="994.921875"/>
     <use xlink:href="#ArialMT-20" x="1044.921875"/>
     <use xlink:href="#ArialMT-45" x="1072.705078"/>
     <use xlink:href="#ArialMT-64" x="1139.404297"/>
     <use xlink:href="#ArialMT-75" x="1195.019531"/>
     <use xlink:href="#ArialMT-63" x="1250.634766"/>
     <use xlink:href="#ArialMT-61" x="1300.634766"/>
     <use xlink:href="#ArialMT-74" x="1356.25"/>
     <use xlink:href="#ArialMT-69" x="1384.033203"/>
     <use xlink:href="#ArialMT-6f" x="1406.25"/>
     <use xlink:href="#ArialMT-6e" x="1461.865234"/>
    </g>
   </g>
   <g id="legend_1">
    <g id="patch_7">
     <path d="M 45.467188 106.005937 
L 180.007812 106.005937 
Q 182.007812 106.005937 182.007812 104.005937 
L 182.007812 33.084062 
Q 182.007812 31.084062 180.007812 31.084062 
L 45.467188 31.084062 
Q 43.467188 31.084062 43.467188 33.084062 
L 43.467188 104.005937 
Q 43.467188 106.005937 45.467188 106.005937 
z
" style="fill: #ffffff; opacity: 0.8; stroke: #cccccc; stroke-linejoin: miter"/>
    </g>
    <g id="line2d_19">
     <path d="M 47.467188 38.86375 
L 57.467188 38.86375 
L 67.467188 38.86375 
" style="fill: none; stroke: #1f77b4; stroke-width: 1.5; stroke-linecap: round"/>
    </g>
    <g id="text_17">
     <!-- UE (&gt;25, less than HS) -->
     <g style="fill: #262626" transform="translate(75.467188 42.36375)scale(0.1 -0.1)">
      <defs>
       <path id="ArialMT-28" d="M 1497 -1347 
Q 1031 -759 709 28 
Q 388 816 388 1659 
Q 388 2403 628 3084 
Q 909 3875 1497 4659 
L 1900 4659 
Q 1522 4009 1400 3731 
Q 1209 3300 1100 2831 
Q 966 2247 966 1656 
Q 966 153 1900 -1347 
L 1497 -1347 
z
" transform="scale(0.015625)"/>
       <path id="ArialMT-3e" d="M 3384 2003 
L 350 706 
L 350 1266 
L 2753 2263 
L 350 3250 
L 350 3809 
L 3384 2528 
L 3384 2003 
z
" transform="scale(0.015625)"/>
       <path id="ArialMT-2c" d="M 569 0 
L 569 641 
L 1209 641 
L 1209 0 
Q 1209 -353 1084 -570 
Q 959 -788 688 -906 
L 531 -666 
Q 709 -588 793 -436 
Q 878 -284 888 0 
L 569 0 
z
" transform="scale(0.015625)"/>
       <path id="ArialMT-73" d="M 197 991 
L 753 1078 
Q 800 744 1014 566 
Q 1228 388 1613 388 
Q 2000 388 2187 545 
Q 2375 703 2375 916 
Q 2375 1106 2209 1216 
Q 2094 1291 1634 1406 
Q 1016 1563 777 1677 
Q 538 1791 414 1992 
Q 291 2194 291 2438 
Q 291 2659 392 2848 
Q 494 3038 669 3163 
Q 800 3259 1026 3326 
Q 1253 3394 1513 3394 
Q 1903 3394 2198 3281 
Q 2494 3169 2634 2976 
Q 2775 2784 2828 2463 
L 2278 2388 
Q 2241 2644 2061 2787 
Q 1881 2931 1553 2931 
Q 1166 2931 1000 2803 
Q 834 2675 834 2503 
Q 834 2394 903 2306 
Q 972 2216 1119 2156 
Q 1203 2125 1616 2013 
Q 2213 1853 2448 1751 
Q 2684 1650 2818 1456 
Q 2953 1263 2953 975 
Q 2953 694 2789 445 
Q 2625 197 2315 61 
Q 2006 -75 1616 -75 
Q 969 -75 630 194 
Q 291 463 197 991 
z
" transform="scale(0.015625)"/>
       <path id="ArialMT-68" d="M 422 0 
L 422 4581 
L 984 4581 
L 984 2938 
Q 1378 3394 1978 3394 
Q 2347 3394 2619 3248 
Q 2891 3103 3008 2847 
Q 3125 2591 3125 2103 
L 3125 0 
L 2563 0 
L 2563 2103 
Q 2563 2525 2380 2717 
Q 2197 2909 1863 2909 
Q 1613 2909 1392 2779 
Q 1172 2650 1078 2428 
Q 984 2206 984 1816 
L 984 0 
L 422 0 
z
" transform="scale(0.015625)"/>
       <path id="ArialMT-48" d="M 513 0 
L 513 4581 
L 1119 4581 
L 1119 2700 
L 3500 2700 
L 3500 4581 
L 4106 4581 
L 4106 0 
L 3500 0 
L 3500 2159 
L 1119 2159 
L 1119 0 
L 513 0 
z
" transform="scale(0.015625)"/>
       <path id="ArialMT-53" d="M 288 1472 
L 859 1522 
Q 900 1178 1048 958 
Q 1197 738 1509 602 
Q 1822 466 2213 466 
Q 2559 466 2825 569 
Q 3091 672 3220 851 
Q 3350 1031 3350 1244 
Q 3350 1459 3225 1620 
Q 3100 1781 2813 1891 
Q 2628 1963 1997 2114 
Q 1366 2266 1113 2400 
Q 784 2572 623 2826 
Q 463 3081 463 3397 
Q 463 3744 659 4045 
Q 856 4347 1234 4503 
Q 1613 4659 2075 4659 
Q 2584 4659 2973 4495 
Q 3363 4331 3572 4012 
Q 3781 3694 3797 3291 
L 3216 3247 
Q 3169 3681 2898 3903 
Q 2628 4125 2100 4125 
Q 1550 4125 1298 3923 
Q 1047 3722 1047 3438 
Q 1047 3191 1225 3031 
Q 1400 2872 2139 2705 
Q 2878 2538 3153 2413 
Q 3553 2228 3743 1945 
Q 3934 1663 3934 1294 
Q 3934 928 3725 604 
Q 3516 281 3123 101 
Q 2731 -78 2241 -78 
Q 1619 -78 1198 103 
Q 778 284 539 648 
Q 300 1013 288 1472 
z
" transform="scale(0.015625)"/>
       <path id="ArialMT-29" d="M 791 -1347 
L 388 -1347 
Q 1322 153 1322 1656 
Q 1322 2244 1188 2822 
Q 1081 3291 891 3722 
Q 769 4003 388 4659 
L 791 4659 
Q 1378 3875 1659 3084 
Q 1900 2403 1900 1659 
Q 1900 816 1576 28 
Q 1253 -759 791 -1347 
z
" transform="scale(0.015625)"/>
      </defs>
      <use xlink:href="#ArialMT-55"/>
      <use xlink:href="#ArialMT-45" x="72.216797"/>
      <use xlink:href="#ArialMT-20" x="138.916016"/>
      <use xlink:href="#ArialMT-28" x="166.699219"/>
      <use xlink:href="#ArialMT-3e" x="200"/>
      <use xlink:href="#ArialMT-32" x="258.398438"/>
      <use xlink:href="#ArialMT-35" x="314.013672"/>
      <use xlink:href="#ArialMT-2c" x="369.628906"/>
      <use xlink:href="#ArialMT-20" x="397.412109"/>
      <use xlink:href="#ArialMT-6c" x="425.195312"/>
      <use xlink:href="#ArialMT-65" x="447.412109"/>
      <use xlink:href="#ArialMT-73" x="503.027344"/>
      <use xlink:href="#ArialMT-73" x="553.027344"/>
      <use xlink:href="#ArialMT-20" x="603.027344"/>
      <use xlink:href="#ArialMT-74" x="630.810547"/>
      <use xlink:href="#ArialMT-68" x="658.59375"/>
      <use xlink:href="#ArialMT-61" x="714.208984"/>
      <use xlink:href="#ArialMT-6e" x="769.824219"/>
      <use xlink:href="#ArialMT-20" x="825.439453"/>
      <use xlink:href="#ArialMT-48" x="853.222656"/>
      <use xlink:href="#ArialMT-53" x="925.439453"/>
      <use xlink:href="#ArialMT-29" x="992.138672"/>
     </g>
    </g>
    <g id="line2d_20">
     <path d="M 47.467188 53.248125 
L 57.467188 53.248125 
L 67.467188 53.248125 
" style="fill: none; stroke: #ff7f0e; stroke-width: 1.5; stroke-linecap: round"/>
    </g>
    <g id="text_18">
     <!-- UE (&gt;25, HS) -->
     <g style="fill: #262626" transform="translate(75.467188 56.748125)scale(0.1 -0.1)">
      <use xlink:href="#ArialMT-55"/>
      <use xlink:href="#ArialMT-45" x="72.216797"/>
      <use xlink:href="#ArialMT-20" x="138.916016"/>
      <use xlink:href="#ArialMT-28" x="166.699219"/>
      <use xlink:href="#ArialMT-3e" x="200"/>
      <use xlink:href="#ArialMT-32" x="258.398438"/>
      <use xlink:href="#ArialMT-35" x="314.013672"/>
      <use xlink:href="#ArialMT-2c" x="369.628906"/>
      <use xlink:href="#ArialMT-20" x="397.412109"/>
      <use xlink:href="#ArialMT-48" x="425.195312"/>
      <use xlink:href="#ArialMT-53" x="497.412109"/>
      <use xlink:href="#ArialMT-29" x="564.111328"/>
     </g>
    </g>
    <g id="line2d_21">
     <path d="M 47.467188 67.6325 
L 57.467188 67.6325 
L 67.467188 67.6325 
" style="fill: none; stroke: #2ca02c; stroke-width: 1.5; stroke-linecap: round"/>
    </g>
    <g id="text_19">
     <!-- UE (&gt;25, College) -->
     <g style="fill: #262626" transform="translate(75.467188 71.1325)scale(0.1 -0.1)">
      <defs>
       <path id="ArialMT-43" d="M 3763 1606 
L 4369 1453 
Q 4178 706 3683 314 
Q 3188 -78 2472 -78 
Q 1731 -78 1267 223 
Q 803 525 561 1097 
Q 319 1669 319 2325 
Q 319 3041 592 3573 
Q 866 4106 1370 4382 
Q 1875 4659 2481 4659 
Q 3169 4659 3637 4309 
Q 4106 3959 4291 3325 
L 3694 3184 
Q 3534 3684 3231 3912 
Q 2928 4141 2469 4141 
Q 1941 4141 1586 3887 
Q 1231 3634 1087 3207 
Q 944 2781 944 2328 
Q 944 1744 1114 1308 
Q 1284 872 1643 656 
Q 2003 441 2422 441 
Q 2931 441 3284 734 
Q 3638 1028 3763 1606 
z
" transform="scale(0.015625)"/>
       <path id="ArialMT-67" d="M 319 -275 
L 866 -356 
Q 900 -609 1056 -725 
Q 1266 -881 1628 -881 
Q 2019 -881 2231 -725 
Q 2444 -569 2519 -288 
Q 2563 -116 2559 434 
Q 2191 0 1641 0 
Q 956 0 581 494 
Q 206 988 206 1678 
Q 206 2153 378 2554 
Q 550 2956 876 3175 
Q 1203 3394 1644 3394 
Q 2231 3394 2613 2919 
L 2613 3319 
L 3131 3319 
L 3131 450 
Q 3131 -325 2973 -648 
Q 2816 -972 2473 -1159 
Q 2131 -1347 1631 -1347 
Q 1038 -1347 672 -1080 
Q 306 -813 319 -275 
z
M 784 1719 
Q 784 1066 1043 766 
Q 1303 466 1694 466 
Q 2081 466 2343 764 
Q 2606 1063 2606 1700 
Q 2606 2309 2336 2618 
Q 2066 2928 1684 2928 
Q 1309 2928 1046 2623 
Q 784 2319 784 1719 
z
" transform="scale(0.015625)"/>
      </defs>
      <use xlink:href="#ArialMT-55"/>
      <use xlink:href="#ArialMT-45" x="72.216797"/>
      <use xlink:href="#ArialMT-20" x="138.916016"/>
      <use xlink:href="#ArialMT-28" x="166.699219"/>
      <use xlink:href="#ArialMT-3e" x="200"/>
      <use xlink:href="#ArialMT-32" x="258.398438"/>
      <use xlink:href="#ArialMT-35" x="314.013672"/>
      <use xlink:href="#ArialMT-2c" x="369.628906"/>
      <use xlink:href="#ArialMT-20" x="397.412109"/>
      <use xlink:href="#ArialMT-43" x="425.195312"/>
      <use xlink:href="#ArialMT-6f" x="497.412109"/>
      <use xlink:href="#ArialMT-6c" x="553.027344"/>
      <use xlink:href="#ArialMT-6c" x="575.244141"/>
      <use xlink:href="#ArialMT-65" x="597.460938"/>
      <use xlink:href="#ArialMT-67" x="653.076172"/>
      <use xlink:href="#ArialMT-65" x="708.691406"/>
      <use xlink:href="#ArialMT-29" x="764.306641"/>
     </g>
    </g>
    <g id="line2d_22">
     <path d="M 47.467188 82.016875 
L 57.467188 82.016875 
L 67.467188 82.016875 
" style="fill: none; stroke: #d62728; stroke-width: 1.5; stroke-linecap: round"/>
    </g>
    <g id="text_20">
     <!-- UE (&gt;25, Master) -->
     <g style="fill: #262626" transform="translate(75.467188 85.516875)scale(0.1 -0.1)">
      <defs>
       <path id="ArialMT-4d" d="M 475 0 
L 475 4581 
L 1388 4581 
L 2472 1338 
Q 2622 884 2691 659 
Q 2769 909 2934 1394 
L 4031 4581 
L 4847 4581 
L 4847 0 
L 4263 0 
L 4263 3834 
L 2931 0 
L 2384 0 
L 1059 3900 
L 1059 0 
L 475 0 
z
" transform="scale(0.015625)"/>
       <path id="ArialMT-72" d="M 416 0 
L 416 3319 
L 922 3319 
L 922 2816 
Q 1116 3169 1280 3281 
Q 1444 3394 1641 3394 
Q 1925 3394 2219 3213 
L 2025 2691 
Q 1819 2813 1613 2813 
Q 1428 2813 1281 2702 
Q 1134 2591 1072 2394 
Q 978 2094 978 1738 
L 978 0 
L 416 0 
z
" transform="scale(0.015625)"/>
      </defs>
      <use xlink:href="#ArialMT-55"/>
      <use xlink:href="#ArialMT-45" x="72.216797"/>
      <use xlink:href="#ArialMT-20" x="138.916016"/>
      <use xlink:href="#ArialMT-28" x="166.699219"/>
      <use xlink:href="#ArialMT-3e" x="200"/>
      <use xlink:href="#ArialMT-32" x="258.398438"/>
      <use xlink:href="#ArialMT-35" x="314.013672"/>
      <use xlink:href="#ArialMT-2c" x="369.628906"/>
      <use xlink:href="#ArialMT-20" x="397.412109"/>
      <use xlink:href="#ArialMT-4d" x="425.195312"/>
      <use xlink:href="#ArialMT-61" x="508.496094"/>
      <use xlink:href="#ArialMT-73" x="564.111328"/>
      <use xlink:href="#ArialMT-74" x="614.111328"/>
      <use xlink:href="#ArialMT-65" x="641.894531"/>
      <use xlink:href="#ArialMT-72" x="697.509766"/>
      <use xlink:href="#ArialMT-29" x="730.810547"/>
     </g>
    </g>
    <g id="line2d_23">
     <path d="M 47.467188 96.40125 
L 57.467188 96.40125 
L 67.467188 96.40125 
" style="fill: none; stroke: #9467bd; stroke-width: 1.5; stroke-linecap: round"/>
    </g>
    <g id="text_21">
     <!-- UE (&gt;25, Doctoral) -->
     <g style="fill: #262626" transform="translate(75.467188 99.90125)scale(0.1 -0.1)">
      <use xlink:href="#ArialMT-55"/>
      <use xlink:href="#ArialMT-45" x="72.216797"/>
      <use xlink:href="#ArialMT-20" x="138.916016"/>
      <use xlink:href="#ArialMT-28" x="166.699219"/>
      <use xlink:href="#ArialMT-3e" x="200"/>
      <use xlink:href="#ArialMT-32" x="258.398438"/>
      <use xlink:href="#ArialMT-35" x="314.013672"/>
      <use xlink:href="#ArialMT-2c" x="369.628906"/>
      <use xlink:href="#ArialMT-20" x="397.412109"/>
      <use xlink:href="#ArialMT-44" x="425.195312"/>
      <use xlink:href="#ArialMT-6f" x="497.412109"/>
      <use xlink:href="#ArialMT-63" x="553.027344"/>
      <use xlink:href="#ArialMT-74" x="603.027344"/>
      <use xlink:href="#ArialMT-6f" x="630.810547"/>
      <use xlink:href="#ArialMT-72" x="686.425781"/>
      <use xlink:href="#ArialMT-61" x="719.726562"/>
      <use xlink:href="#ArialMT-6c" x="775.341797"/>
      <use xlink:href="#ArialMT-29" x="797.558594"/>
     </g>
    </g>
   </g>
  </g>
 </g>
 <defs>
  <clipPath id="p322face1ab">
   <rect x="38.467188" y="26.084062" width="334.8" height="217.44"/>
  </clipPath>
 </defs>
</svg>
