<?xml version="1.0" encoding="utf-8" standalone="no"?>
<!DOCTYPE svg PUBLIC "-//W3C//DTD SVG 1.1//EN"
  "http://www.w3.org/Graphics/SVG/1.1/DTD/svg11.dtd">
<svg xmlns:xlink="http://www.w3.org/1999/xlink" width="380.467187pt" height="280.234062pt" viewBox="0 0 380.467187 280.234062" xmlns="http://www.w3.org/2000/svg" version="1.1">
 <metadata>
  <rdf:RDF xmlns:dc="http://purl.org/dc/elements/1.1/" xmlns:cc="http://creativecommons.org/ns#" xmlns:rdf="http://www.w3.org/1999/02/22-rdf-syntax-ns#">
   <cc:Work>
    <dc:type rdf:resource="http://purl.org/dc/dcmitype/StillImage"/>
    <dc:date>2022-08-29T10:18:25.212763</dc:date>
    <dc:format>image/svg+xml</dc:format>
    <dc:creator>
     <cc:Agent>
      <dc:title>Matplotlib v3.5.1, https://matplotlib.org/</dc:title>
     </cc:Agent>
    </dc:creator>
   </cc:Work>
  </rdf:RDF>
 </metadata>
 <defs>
  <style type="text/css">*{stroke-linejoin: round; stroke-linecap: butt}</style>
 </defs>
 <g id="figure_1">
  <g id="patch_1">
   <path d="M 0 280.234062 
L 380.467187 280.234062 
L 380.467187 0 
L 0 0 
z
" style="fill: #ffffff"/>
  </g>
  <g id="axes_1">
   <g id="patch_2">
    <path d="M 38.467188 243.743437 
L 373.267188 243.743437 
L 373.267188 26.303437 
L 38.467188 26.303437 
z
" style="fill: #ffffff"/>
   </g>
   <g id="matplotlib.axis_1">
    <g id="xtick_1">
     <g id="line2d_1">
      <path d="M 47.336062 243.743437 
L 47.336062 26.303437 
" clip-path="url(#padf6c4028f)" style="fill: none; stroke-dasharray: 0.8,1.32; stroke-dashoffset: 0; stroke: #cccccc; stroke-width: 0.8"/>
     </g>
     <g id="text_1">
      <!-- 1949 -->
      <g style="fill: #262626" transform="translate(36.214187 257.90125)scale(0.1 -0.1)">
       <defs>
        <path id="ArialMT-31" d="M 2384 0 
L 1822 0 
L 1822 3584 
Q 1619 3391 1289 3197 
Q 959 3003 697 2906 
L 697 3450 
Q 1169 3672 1522 3987 
Q 1875 4303 2022 4600 
L 2384 4600 
L 2384 0 
z
" transform="scale(0.015625)"/>
        <path id="ArialMT-39" d="M 350 1059 
L 891 1109 
Q 959 728 1153 556 
Q 1347 384 1650 384 
Q 1909 384 2104 503 
Q 2300 622 2425 820 
Q 2550 1019 2634 1356 
Q 2719 1694 2719 2044 
Q 2719 2081 2716 2156 
Q 2547 1888 2255 1720 
Q 1963 1553 1622 1553 
Q 1053 1553 659 1965 
Q 266 2378 266 3053 
Q 266 3750 677 4175 
Q 1088 4600 1706 4600 
Q 2153 4600 2523 4359 
Q 2894 4119 3086 3673 
Q 3278 3228 3278 2384 
Q 3278 1506 3087 986 
Q 2897 466 2520 194 
Q 2144 -78 1638 -78 
Q 1100 -78 759 220 
Q 419 519 350 1059 
z
M 2653 3081 
Q 2653 3566 2395 3850 
Q 2138 4134 1775 4134 
Q 1400 4134 1122 3828 
Q 844 3522 844 3034 
Q 844 2597 1108 2323 
Q 1372 2050 1759 2050 
Q 2150 2050 2401 2323 
Q 2653 2597 2653 3081 
z
" transform="scale(0.015625)"/>
        <path id="ArialMT-34" d="M 2069 0 
L 2069 1097 
L 81 1097 
L 81 1613 
L 2172 4581 
L 2631 4581 
L 2631 1613 
L 3250 1613 
L 3250 1097 
L 2631 1097 
L 2631 0 
L 2069 0 
z
M 2069 1613 
L 2069 3678 
L 634 1613 
L 2069 1613 
z
" transform="scale(0.015625)"/>
       </defs>
       <use xlink:href="#ArialMT-31"/>
       <use xlink:href="#ArialMT-39" x="55.615234"/>
       <use xlink:href="#ArialMT-34" x="111.230469"/>
       <use xlink:href="#ArialMT-39" x="166.845703"/>
      </g>
     </g>
    </g>
    <g id="xtick_2">
     <g id="line2d_2">
      <path d="M 91.680433 243.743437 
L 91.680433 26.303437 
" clip-path="url(#padf6c4028f)" style="fill: none; stroke-dasharray: 0.8,1.32; stroke-dashoffset: 0; stroke: #cccccc; stroke-width: 0.8"/>
     </g>
     <g id="text_2">
      <!-- 1959 -->
      <g style="fill: #262626" transform="translate(80.558558 257.90125)scale(0.1 -0.1)">
       <defs>
        <path id="ArialMT-35" d="M 266 1200 
L 856 1250 
Q 922 819 1161 601 
Q 1400 384 1738 384 
Q 2144 384 2425 690 
Q 2706 997 2706 1503 
Q 2706 1984 2436 2262 
Q 2166 2541 1728 2541 
Q 1456 2541 1237 2417 
Q 1019 2294 894 2097 
L 366 2166 
L 809 4519 
L 3088 4519 
L 3088 3981 
L 1259 3981 
L 1013 2750 
Q 1425 3038 1878 3038 
Q 2478 3038 2890 2622 
Q 3303 2206 3303 1553 
Q 3303 931 2941 478 
Q 2500 -78 1738 -78 
Q 1113 -78 717 272 
Q 322 622 266 1200 
z
" transform="scale(0.015625)"/>
       </defs>
       <use xlink:href="#ArialMT-31"/>
       <use xlink:href="#ArialMT-39" x="55.615234"/>
       <use xlink:href="#ArialMT-35" x="111.230469"/>
       <use xlink:href="#ArialMT-39" x="166.845703"/>
      </g>
     </g>
    </g>
    <g id="xtick_3">
     <g id="line2d_3">
      <path d="M 136.024803 243.743437 
L 136.024803 26.303437 
" clip-path="url(#padf6c4028f)" style="fill: none; stroke-dasharray: 0.8,1.32; stroke-dashoffset: 0; stroke: #cccccc; stroke-width: 0.8"/>
     </g>
     <g id="text_3">
      <!-- 1969 -->
      <g style="fill: #262626" transform="translate(124.902928 257.90125)scale(0.1 -0.1)">
       <defs>
        <path id="ArialMT-36" d="M 3184 3459 
L 2625 3416 
Q 2550 3747 2413 3897 
Q 2184 4138 1850 4138 
Q 1581 4138 1378 3988 
Q 1113 3794 959 3422 
Q 806 3050 800 2363 
Q 1003 2672 1297 2822 
Q 1591 2972 1913 2972 
Q 2475 2972 2870 2558 
Q 3266 2144 3266 1488 
Q 3266 1056 3080 686 
Q 2894 316 2569 119 
Q 2244 -78 1831 -78 
Q 1128 -78 684 439 
Q 241 956 241 2144 
Q 241 3472 731 4075 
Q 1159 4600 1884 4600 
Q 2425 4600 2770 4297 
Q 3116 3994 3184 3459 
z
M 888 1484 
Q 888 1194 1011 928 
Q 1134 663 1356 523 
Q 1578 384 1822 384 
Q 2178 384 2434 671 
Q 2691 959 2691 1453 
Q 2691 1928 2437 2201 
Q 2184 2475 1800 2475 
Q 1419 2475 1153 2201 
Q 888 1928 888 1484 
z
" transform="scale(0.015625)"/>
       </defs>
       <use xlink:href="#ArialMT-31"/>
       <use xlink:href="#ArialMT-39" x="55.615234"/>
       <use xlink:href="#ArialMT-36" x="111.230469"/>
       <use xlink:href="#ArialMT-39" x="166.845703"/>
      </g>
     </g>
    </g>
    <g id="xtick_4">
     <g id="line2d_4">
      <path d="M 180.369174 243.743437 
L 180.369174 26.303437 
" clip-path="url(#padf6c4028f)" style="fill: none; stroke-dasharray: 0.8,1.32; stroke-dashoffset: 0; stroke: #cccccc; stroke-width: 0.8"/>
     </g>
     <g id="text_4">
      <!-- 1979 -->
      <g style="fill: #262626" transform="translate(169.247299 257.90125)scale(0.1 -0.1)">
       <defs>
        <path id="ArialMT-37" d="M 303 3981 
L 303 4522 
L 3269 4522 
L 3269 4084 
Q 2831 3619 2401 2847 
Q 1972 2075 1738 1259 
Q 1569 684 1522 0 
L 944 0 
Q 953 541 1156 1306 
Q 1359 2072 1739 2783 
Q 2119 3494 2547 3981 
L 303 3981 
z
" transform="scale(0.015625)"/>
       </defs>
       <use xlink:href="#ArialMT-31"/>
       <use xlink:href="#ArialMT-39" x="55.615234"/>
       <use xlink:href="#ArialMT-37" x="111.230469"/>
       <use xlink:href="#ArialMT-39" x="166.845703"/>
      </g>
     </g>
    </g>
    <g id="xtick_5">
     <g id="line2d_5">
      <path d="M 224.713545 243.743437 
L 224.713545 26.303437 
" clip-path="url(#padf6c4028f)" style="fill: none; stroke-dasharray: 0.8,1.32; stroke-dashoffset: 0; stroke: #cccccc; stroke-width: 0.8"/>
     </g>
     <g id="text_5">
      <!-- 1989 -->
      <g style="fill: #262626" transform="translate(213.59167 257.90125)scale(0.1 -0.1)">
       <defs>
        <path id="ArialMT-38" d="M 1131 2484 
Q 781 2613 612 2850 
Q 444 3088 444 3419 
Q 444 3919 803 4259 
Q 1163 4600 1759 4600 
Q 2359 4600 2725 4251 
Q 3091 3903 3091 3403 
Q 3091 3084 2923 2848 
Q 2756 2613 2416 2484 
Q 2838 2347 3058 2040 
Q 3278 1734 3278 1309 
Q 3278 722 2862 322 
Q 2447 -78 1769 -78 
Q 1091 -78 675 323 
Q 259 725 259 1325 
Q 259 1772 486 2073 
Q 713 2375 1131 2484 
z
M 1019 3438 
Q 1019 3113 1228 2906 
Q 1438 2700 1772 2700 
Q 2097 2700 2305 2904 
Q 2513 3109 2513 3406 
Q 2513 3716 2298 3927 
Q 2084 4138 1766 4138 
Q 1444 4138 1231 3931 
Q 1019 3725 1019 3438 
z
M 838 1322 
Q 838 1081 952 856 
Q 1066 631 1291 507 
Q 1516 384 1775 384 
Q 2178 384 2440 643 
Q 2703 903 2703 1303 
Q 2703 1709 2433 1975 
Q 2163 2241 1756 2241 
Q 1359 2241 1098 1978 
Q 838 1716 838 1322 
z
" transform="scale(0.015625)"/>
       </defs>
       <use xlink:href="#ArialMT-31"/>
       <use xlink:href="#ArialMT-39" x="55.615234"/>
       <use xlink:href="#ArialMT-38" x="111.230469"/>
       <use xlink:href="#ArialMT-39" x="166.845703"/>
      </g>
     </g>
    </g>
    <g id="xtick_6">
     <g id="line2d_6">
      <path d="M 269.057916 243.743437 
L 269.057916 26.303437 
" clip-path="url(#padf6c4028f)" style="fill: none; stroke-dasharray: 0.8,1.32; stroke-dashoffset: 0; stroke: #cccccc; stroke-width: 0.8"/>
     </g>
     <g id="text_6">
      <!-- 1999 -->
      <g style="fill: #262626" transform="translate(257.936041 257.90125)scale(0.1 -0.1)">
       <use xlink:href="#ArialMT-31"/>
       <use xlink:href="#ArialMT-39" x="55.615234"/>
       <use xlink:href="#ArialMT-39" x="111.230469"/>
       <use xlink:href="#ArialMT-39" x="166.845703"/>
      </g>
     </g>
    </g>
    <g id="xtick_7">
     <g id="line2d_7">
      <path d="M 313.402287 243.743437 
L 313.402287 26.303437 
" clip-path="url(#padf6c4028f)" style="fill: none; stroke-dasharray: 0.8,1.32; stroke-dashoffset: 0; stroke: #cccccc; stroke-width: 0.8"/>
     </g>
     <g id="text_7">
      <!-- 2009 -->
      <g style="fill: #262626" transform="translate(302.280412 257.90125)scale(0.1 -0.1)">
       <defs>
        <path id="ArialMT-32" d="M 3222 541 
L 3222 0 
L 194 0 
Q 188 203 259 391 
Q 375 700 629 1000 
Q 884 1300 1366 1694 
Q 2113 2306 2375 2664 
Q 2638 3022 2638 3341 
Q 2638 3675 2398 3904 
Q 2159 4134 1775 4134 
Q 1369 4134 1125 3890 
Q 881 3647 878 3216 
L 300 3275 
Q 359 3922 746 4261 
Q 1134 4600 1788 4600 
Q 2447 4600 2831 4234 
Q 3216 3869 3216 3328 
Q 3216 3053 3103 2787 
Q 2991 2522 2730 2228 
Q 2469 1934 1863 1422 
Q 1356 997 1212 845 
Q 1069 694 975 541 
L 3222 541 
z
" transform="scale(0.015625)"/>
        <path id="ArialMT-30" d="M 266 2259 
Q 266 3072 433 3567 
Q 600 4063 929 4331 
Q 1259 4600 1759 4600 
Q 2128 4600 2406 4451 
Q 2684 4303 2865 4023 
Q 3047 3744 3150 3342 
Q 3253 2941 3253 2259 
Q 3253 1453 3087 958 
Q 2922 463 2592 192 
Q 2263 -78 1759 -78 
Q 1097 -78 719 397 
Q 266 969 266 2259 
z
M 844 2259 
Q 844 1131 1108 757 
Q 1372 384 1759 384 
Q 2147 384 2411 759 
Q 2675 1134 2675 2259 
Q 2675 3391 2411 3762 
Q 2147 4134 1753 4134 
Q 1366 4134 1134 3806 
Q 844 3388 844 2259 
z
" transform="scale(0.015625)"/>
       </defs>
       <use xlink:href="#ArialMT-32"/>
       <use xlink:href="#ArialMT-30" x="55.615234"/>
       <use xlink:href="#ArialMT-30" x="111.230469"/>
       <use xlink:href="#ArialMT-39" x="166.845703"/>
      </g>
     </g>
    </g>
    <g id="xtick_8">
     <g id="line2d_8">
      <path d="M 357.746658 243.743437 
L 357.746658 26.303437 
" clip-path="url(#padf6c4028f)" style="fill: none; stroke-dasharray: 0.8,1.32; stroke-dashoffset: 0; stroke: #cccccc; stroke-width: 0.8"/>
     </g>
     <g id="text_8">
      <!-- 2019 -->
      <g style="fill: #262626" transform="translate(346.624783 257.90125)scale(0.1 -0.1)">
       <use xlink:href="#ArialMT-32"/>
       <use xlink:href="#ArialMT-30" x="55.615234"/>
       <use xlink:href="#ArialMT-31" x="111.230469"/>
       <use xlink:href="#ArialMT-39" x="166.845703"/>
      </g>
     </g>
    </g>
    <g id="xtick_9"/>
    <g id="xtick_10"/>
    <g id="xtick_11"/>
    <g id="xtick_12"/>
    <g id="xtick_13"/>
    <g id="xtick_14"/>
    <g id="xtick_15"/>
    <g id="text_9">
     <!-- DATE -->
     <g style="fill: #262626" transform="translate(192.900781 271.046562)scale(0.1 -0.1)">
      <defs>
       <path id="ArialMT-44" d="M 494 0 
L 494 4581 
L 2072 4581 
Q 2606 4581 2888 4516 
Q 3281 4425 3559 4188 
Q 3922 3881 4101 3404 
Q 4281 2928 4281 2316 
Q 4281 1794 4159 1391 
Q 4038 988 3847 723 
Q 3656 459 3429 307 
Q 3203 156 2883 78 
Q 2563 0 2147 0 
L 494 0 
z
M 1100 541 
L 2078 541 
Q 2531 541 2789 625 
Q 3047 709 3200 863 
Q 3416 1078 3536 1442 
Q 3656 1806 3656 2325 
Q 3656 3044 3420 3430 
Q 3184 3816 2847 3947 
Q 2603 4041 2063 4041 
L 1100 4041 
L 1100 541 
z
" transform="scale(0.015625)"/>
       <path id="ArialMT-41" d="M -9 0 
L 1750 4581 
L 2403 4581 
L 4278 0 
L 3588 0 
L 3053 1388 
L 1138 1388 
L 634 0 
L -9 0 
z
M 1313 1881 
L 2866 1881 
L 2388 3150 
Q 2169 3728 2063 4100 
Q 1975 3659 1816 3225 
L 1313 1881 
z
" transform="scale(0.015625)"/>
       <path id="ArialMT-54" d="M 1659 0 
L 1659 4041 
L 150 4041 
L 150 4581 
L 3781 4581 
L 3781 4041 
L 2266 4041 
L 2266 0 
L 1659 0 
z
" transform="scale(0.015625)"/>
       <path id="ArialMT-45" d="M 506 0 
L 506 4581 
L 3819 4581 
L 3819 4041 
L 1113 4041 
L 1113 2638 
L 3647 2638 
L 3647 2100 
L 1113 2100 
L 1113 541 
L 3925 541 
L 3925 0 
L 506 0 
z
" transform="scale(0.015625)"/>
      </defs>
      <use xlink:href="#ArialMT-44"/>
      <use xlink:href="#ArialMT-41" x="72.216797"/>
      <use xlink:href="#ArialMT-54" x="131.541016"/>
      <use xlink:href="#ArialMT-45" x="192.625"/>
     </g>
    </g>
   </g>
   <g id="matplotlib.axis_2">
    <g id="ytick_1">
     <g id="line2d_9">
      <path d="M 38.467188 238.157034 
L 373.267188 238.157034 
" clip-path="url(#padf6c4028f)" style="fill: none; stroke-dasharray: 0.8,1.32; stroke-dashoffset: 0; stroke: #cccccc; stroke-width: 0.8"/>
     </g>
     <g id="text_10">
      <!-- 2 -->
      <g style="fill: #262626" transform="translate(25.90625 241.735941)scale(0.1 -0.1)">
       <use xlink:href="#ArialMT-32"/>
      </g>
     </g>
    </g>
    <g id="ytick_2">
     <g id="line2d_10">
      <path d="M 38.467188 209.508813 
L 373.267188 209.508813 
" clip-path="url(#padf6c4028f)" style="fill: none; stroke-dasharray: 0.8,1.32; stroke-dashoffset: 0; stroke: #cccccc; stroke-width: 0.8"/>
     </g>
     <g id="text_11">
      <!-- 4 -->
      <g style="fill: #262626" transform="translate(25.90625 213.087719)scale(0.1 -0.1)">
       <use xlink:href="#ArialMT-34"/>
      </g>
     </g>
    </g>
    <g id="ytick_3">
     <g id="line2d_11">
      <path d="M 38.467188 180.860592 
L 373.267188 180.860592 
" clip-path="url(#padf6c4028f)" style="fill: none; stroke-dasharray: 0.8,1.32; stroke-dashoffset: 0; stroke: #cccccc; stroke-width: 0.8"/>
     </g>
     <g id="text_12">
      <!-- 6 -->
      <g style="fill: #262626" transform="translate(25.90625 184.439498)scale(0.1 -0.1)">
       <use xlink:href="#ArialMT-36"/>
      </g>
     </g>
    </g>
    <g id="ytick_4">
     <g id="line2d_12">
      <path d="M 38.467188 152.21237 
L 373.267188 152.21237 
" clip-path="url(#padf6c4028f)" style="fill: none; stroke-dasharray: 0.8,1.32; stroke-dashoffset: 0; stroke: #cccccc; stroke-width: 0.8"/>
     </g>
     <g id="text_13">
      <!-- 8 -->
      <g style="fill: #262626" transform="translate(25.90625 155.791277)scale(0.1 -0.1)">
       <use xlink:href="#ArialMT-38"/>
      </g>
     </g>
    </g>
    <g id="ytick_5">
     <g id="line2d_13">
      <path d="M 38.467188 123.564149 
L 373.267188 123.564149 
" clip-path="url(#padf6c4028f)" style="fill: none; stroke-dasharray: 0.8,1.32; stroke-dashoffset: 0; stroke: #cccccc; stroke-width: 0.8"/>
     </g>
     <g id="text_14">
      <!-- 10 -->
      <g style="fill: #262626" transform="translate(20.345313 127.143055)scale(0.1 -0.1)">
       <use xlink:href="#ArialMT-31"/>
       <use xlink:href="#ArialMT-30" x="55.615234"/>
      </g>
     </g>
    </g>
    <g id="ytick_6">
     <g id="line2d_14">
      <path d="M 38.467188 94.915928 
L 373.267188 94.915928 
" clip-path="url(#padf6c4028f)" style="fill: none; stroke-dasharray: 0.8,1.32; stroke-dashoffset: 0; stroke: #cccccc; stroke-width: 0.8"/>
     </g>
     <g id="text_15">
      <!-- 12 -->
      <g style="fill: #262626" transform="translate(20.345313 98.494834)scale(0.1 -0.1)">
       <use xlink:href="#ArialMT-31"/>
       <use xlink:href="#ArialMT-32" x="55.615234"/>
      </g>
     </g>
    </g>
    <g id="ytick_7">
     <g id="line2d_15">
      <path d="M 38.467188 66.267706 
L 373.267188 66.267706 
" clip-path="url(#padf6c4028f)" style="fill: none; stroke-dasharray: 0.8,1.32; stroke-dashoffset: 0; stroke: #cccccc; stroke-width: 0.8"/>
     </g>
     <g id="text_16">
      <!-- 14 -->
      <g style="fill: #262626" transform="translate(20.345313 69.846613)scale(0.1 -0.1)">
       <use xlink:href="#ArialMT-31"/>
       <use xlink:href="#ArialMT-34" x="55.615234"/>
      </g>
     </g>
    </g>
    <g id="ytick_8">
     <g id="line2d_16">
      <path d="M 38.467188 37.619485 
L 373.267188 37.619485 
" clip-path="url(#padf6c4028f)" style="fill: none; stroke-dasharray: 0.8,1.32; stroke-dashoffset: 0; stroke: #cccccc; stroke-width: 0.8"/>
     </g>
     <g id="text_17">
      <!-- 16 -->
      <g style="fill: #262626" transform="translate(20.345313 41.198391)scale(0.1 -0.1)">
       <use xlink:href="#ArialMT-31"/>
       <use xlink:href="#ArialMT-36" x="55.615234"/>
      </g>
     </g>
    </g>
    <g id="text_18">
     <!-- % -->
     <g style="fill: #262626" transform="translate(14.357813 139.469531)rotate(-90)scale(0.1 -0.1)">
      <defs>
       <path id="ArialMT-25" d="M 372 3481 
Q 372 3972 619 4315 
Q 866 4659 1334 4659 
Q 1766 4659 2048 4351 
Q 2331 4044 2331 3447 
Q 2331 2866 2045 2552 
Q 1759 2238 1341 2238 
Q 925 2238 648 2547 
Q 372 2856 372 3481 
z
M 1350 4272 
Q 1141 4272 1002 4090 
Q 863 3909 863 3425 
Q 863 2984 1003 2804 
Q 1144 2625 1350 2625 
Q 1563 2625 1702 2806 
Q 1841 2988 1841 3469 
Q 1841 3913 1700 4092 
Q 1559 4272 1350 4272 
z
M 1353 -169 
L 3859 4659 
L 4316 4659 
L 1819 -169 
L 1353 -169 
z
M 3334 1075 
Q 3334 1569 3581 1911 
Q 3828 2253 4300 2253 
Q 4731 2253 5014 1945 
Q 5297 1638 5297 1041 
Q 5297 459 5011 145 
Q 4725 -169 4303 -169 
Q 3888 -169 3611 142 
Q 3334 453 3334 1075 
z
M 4316 1866 
Q 4103 1866 3964 1684 
Q 3825 1503 3825 1019 
Q 3825 581 3965 400 
Q 4106 219 4313 219 
Q 4528 219 4667 400 
Q 4806 581 4806 1063 
Q 4806 1506 4665 1686 
Q 4525 1866 4316 1866 
z
" transform="scale(0.015625)"/>
      </defs>
      <use xlink:href="#ArialMT-25"/>
     </g>
    </g>
   </g>
   <g id="line2d_17">
    <path d="M 42.901625 218.103279 
L 43.640697 212.373635 
L 44.010234 212.373635 
L 44.37977 216.670868 
L 44.749307 219.53569 
L 45.118843 218.103279 
L 45.48838 215.238457 
L 45.857916 213.806046 
L 46.227452 215.238457 
L 46.596989 213.806046 
L 46.966525 210.941224 
L 47.336062 206.643991 
L 48.444671 190.887469 
L 48.814207 179.428181 
L 49.183744 177.99577 
L 49.55328 170.833714 
L 49.922817 169.401303 
L 50.292353 173.698536 
L 50.661889 146.482726 
L 51.031426 173.698536 
L 51.400962 173.698536 
L 51.770499 175.130947 
L 52.140035 177.99577 
L 52.509572 179.428181 
L 52.879108 182.293003 
L 53.248644 189.455058 
L 53.987717 198.049524 
L 54.357254 205.21158 
L 54.72679 206.643991 
L 55.096327 210.941224 
L 55.465863 213.806046 
L 55.835399 212.373635 
L 56.204936 219.53569 
L 56.944009 228.130157 
L 57.313545 230.994979 
L 57.683082 230.994979 
L 58.052618 226.697746 
L 58.422154 228.130157 
L 58.791691 226.697746 
L 59.161227 226.697746 
L 59.530764 222.400513 
L 59.9003 222.400513 
L 60.269837 228.130157 
L 60.639373 226.697746 
L 61.008909 226.697746 
L 61.378446 228.130157 
L 61.747982 228.130157 
L 62.117519 229.562568 
L 63.226128 220.968102 
L 63.595664 223.832924 
L 63.965201 229.562568 
L 64.334737 230.994979 
L 64.704274 230.994979 
L 65.07381 226.697746 
L 65.443346 232.42739 
L 65.812883 233.859801 
L 66.182419 229.562568 
L 66.921492 232.42739 
L 67.291029 230.994979 
L 67.660565 230.994979 
L 68.399638 225.265335 
L 68.769174 218.103279 
L 69.138711 206.643991 
L 69.508247 203.779169 
L 70.24732 190.887469 
L 70.616856 186.590236 
L 70.986393 185.157825 
L 71.355929 190.887469 
L 71.725466 186.590236 
L 72.095002 180.860592 
L 72.464538 180.860592 
L 72.834075 185.157825 
L 73.203611 192.31988 
L 73.942684 198.049524 
L 74.312221 202.346758 
L 74.681757 202.346758 
L 75.051293 199.481936 
L 75.42083 209.508813 
L 76.159903 212.373635 
L 76.529439 210.941224 
L 76.898976 213.806046 
L 77.268512 210.941224 
L 77.638048 210.941224 
L 78.007585 212.373635 
L 79.116194 212.373635 
L 79.485731 215.238457 
L 79.855267 210.941224 
L 80.224803 209.508813 
L 80.59434 212.373635 
L 81.702949 216.670868 
L 82.072486 209.508813 
L 82.442022 210.941224 
L 82.811558 210.941224 
L 83.181095 215.238457 
L 83.550631 216.670868 
L 83.920168 212.373635 
L 84.289704 212.373635 
L 84.65924 209.508813 
L 85.028777 212.373635 
L 85.398313 210.941224 
L 85.76785 205.21158 
L 86.137386 203.779169 
L 86.506923 192.31988 
L 86.876459 192.31988 
L 88.354605 162.239248 
L 88.724141 159.374426 
L 89.093678 160.806837 
L 89.463214 157.942015 
L 89.83275 159.374426 
L 90.94136 176.563358 
L 91.310896 177.99577 
L 91.680433 182.293003 
L 92.049969 183.725414 
L 92.789042 198.049524 
L 93.158578 198.049524 
L 93.528115 199.481936 
L 94.267188 193.752291 
L 94.636724 188.022647 
L 95.00626 188.022647 
L 95.375797 182.293003 
L 95.745333 195.184702 
L 96.11487 195.184702 
L 96.484406 200.914347 
L 96.853942 190.887469 
L 97.223479 195.184702 
L 97.593015 195.184702 
L 97.962552 192.31988 
L 98.332088 190.887469 
L 98.701625 186.590236 
L 99.071161 188.022647 
L 99.440697 182.293003 
L 99.810234 180.860592 
L 100.17977 176.563358 
L 100.549307 173.698536 
L 100.918843 172.266125 
L 101.28838 172.266125 
L 101.657916 169.401303 
L 102.027452 167.968892 
L 102.396989 173.698536 
L 102.766525 172.266125 
L 103.136062 175.130947 
L 103.505598 176.563358 
L 103.875135 179.428181 
L 104.244671 183.725414 
L 104.614207 185.157825 
L 104.983744 189.455058 
L 105.35328 192.31988 
L 106.461889 192.31988 
L 106.831426 190.887469 
L 107.200962 193.752291 
L 107.570499 190.887469 
L 107.940035 192.31988 
L 108.309572 195.184702 
L 108.679108 190.887469 
L 109.048644 193.752291 
L 109.787717 185.157825 
L 110.157254 189.455058 
L 110.896327 189.455058 
L 111.265863 193.752291 
L 111.635399 193.752291 
L 112.004936 196.617113 
L 112.374472 196.617113 
L 112.744009 195.184702 
L 113.113545 190.887469 
L 113.483082 195.184702 
L 113.852618 195.184702 
L 114.222154 198.049524 
L 114.961227 198.049524 
L 115.330764 202.346758 
L 115.7003 199.481936 
L 116.069837 203.779169 
L 116.808909 200.914347 
L 117.178446 202.346758 
L 117.547982 205.21158 
L 118.656591 205.21158 
L 119.026128 208.076402 
L 119.395664 205.21158 
L 120.134737 210.941224 
L 120.87381 210.941224 
L 121.243346 213.806046 
L 121.612883 213.806046 
L 121.982419 218.103279 
L 122.721492 218.103279 
L 123.091029 219.53569 
L 123.460565 219.53569 
L 123.830101 222.400513 
L 124.199638 220.968102 
L 125.308247 220.968102 
L 126.04732 223.832924 
L 126.786393 220.968102 
L 127.155929 223.832924 
L 127.895002 223.832924 
L 128.634075 220.968102 
L 129.003611 220.968102 
L 129.373148 223.832924 
L 129.742684 222.400513 
L 130.112221 225.265335 
L 130.481757 222.400513 
L 131.22083 222.400513 
L 131.590366 223.832924 
L 131.959903 222.400513 
L 132.329439 223.832924 
L 132.698976 226.697746 
L 133.068512 228.130157 
L 133.438048 223.832924 
L 134.546658 228.130157 
L 136.024803 228.130157 
L 136.39434 229.562568 
L 136.763876 228.130157 
L 137.133413 229.562568 
L 137.502949 229.562568 
L 137.872486 228.130157 
L 138.242022 225.265335 
L 138.611558 226.697746 
L 138.981095 222.400513 
L 139.720168 225.265335 
L 140.089704 223.832924 
L 140.828777 215.238457 
L 141.198313 213.806046 
L 141.56785 209.508813 
L 141.937386 206.643991 
L 142.306923 202.346758 
L 142.676459 200.914347 
L 143.045995 200.914347 
L 144.154605 192.31988 
L 144.524141 186.590236 
L 144.893678 189.455058 
L 145.263214 190.887469 
L 145.63275 190.887469 
L 146.002287 192.31988 
L 146.371823 190.887469 
L 146.74136 190.887469 
L 147.480433 188.022647 
L 147.849969 189.455058 
L 148.219505 192.31988 
L 148.589042 189.455058 
L 148.958578 188.022647 
L 149.328115 190.887469 
L 150.067187 190.887469 
L 150.436724 193.752291 
L 150.80626 193.752291 
L 151.175797 196.617113 
L 151.545333 198.049524 
L 151.91487 196.617113 
L 152.284406 198.049524 
L 152.653942 198.049524 
L 153.023479 200.914347 
L 153.393015 202.346758 
L 153.762552 206.643991 
L 154.132088 205.21158 
L 155.240697 205.21158 
L 155.610234 208.076402 
L 155.97977 209.508813 
L 156.349307 208.076402 
L 157.08838 210.941224 
L 157.457916 208.076402 
L 157.827452 206.643991 
L 158.196989 203.779169 
L 158.566525 202.346758 
L 158.936062 203.779169 
L 159.305598 202.346758 
L 159.675135 203.779169 
L 160.044671 200.914347 
L 160.783744 198.049524 
L 161.15328 195.184702 
L 161.522817 190.887469 
L 162.261889 175.130947 
L 162.631426 162.239248 
L 163.000962 160.806837 
L 163.370499 153.644781 
L 163.740035 149.347548 
L 164.109572 146.482726 
L 164.848644 149.347548 
L 165.218181 153.644781 
L 165.587717 152.21237 
L 165.957254 155.077192 
L 166.32679 155.077192 
L 166.696327 157.942015 
L 167.435399 166.536481 
L 167.804936 167.968892 
L 168.174472 166.536481 
L 168.544009 167.968892 
L 168.913545 165.10407 
L 169.283082 165.10407 
L 169.652618 167.968892 
L 170.022154 166.536481 
L 170.391691 166.536481 
L 170.761227 162.239248 
L 171.130764 163.671659 
L 171.5003 169.401303 
L 171.869837 166.536481 
L 172.239373 172.266125 
L 172.608909 175.130947 
L 173.347982 175.130947 
L 173.717519 179.428181 
L 174.087055 177.99577 
L 174.456591 183.725414 
L 174.826128 180.860592 
L 175.195664 183.725414 
L 175.565201 188.022647 
L 175.934737 186.590236 
L 176.67381 186.590236 
L 177.043346 190.887469 
L 177.412883 192.31988 
L 177.782419 196.617113 
L 178.151956 193.752291 
L 178.521492 195.184702 
L 178.891029 193.752291 
L 179.260565 193.752291 
L 179.630101 195.184702 
L 179.999638 190.887469 
L 180.369174 193.752291 
L 180.738711 192.31988 
L 181.108247 193.752291 
L 181.477784 193.752291 
L 181.84732 198.049524 
L 182.216856 196.617113 
L 182.586393 193.752291 
L 182.955929 192.31988 
L 183.325466 192.31988 
L 183.695002 190.887469 
L 184.434075 190.887469 
L 184.803611 183.725414 
L 185.173148 183.725414 
L 185.542684 182.293003 
L 186.281757 160.806837 
L 187.02083 155.077192 
L 187.759903 157.942015 
L 188.129439 160.806837 
L 188.498976 162.239248 
L 188.868512 167.968892 
L 189.238048 163.671659 
L 189.607585 162.239248 
L 190.346658 167.968892 
L 190.716194 162.239248 
L 191.085731 162.239248 
L 191.455267 167.968892 
L 191.824803 163.671659 
L 192.19434 163.671659 
L 192.933413 150.779959 
L 193.302949 145.050315 
L 193.672486 142.185493 
L 194.042022 140.753082 
L 194.781095 132.158615 
L 195.150631 132.158615 
L 195.520168 126.428971 
L 196.25924 120.699327 
L 196.998313 110.672449 
L 197.36785 107.807627 
L 197.737386 106.375216 
L 198.106923 113.537271 
L 198.476459 110.672449 
L 198.845995 113.537271 
L 199.215532 113.537271 
L 199.585068 116.402094 
L 200.324141 126.428971 
L 200.693678 126.428971 
L 201.063214 130.726204 
L 202.171823 147.915137 
L 202.54136 150.779959 
L 202.910896 155.077192 
L 203.280433 156.509604 
L 203.649969 156.509604 
L 204.019505 162.239248 
L 204.389042 165.10407 
L 204.758578 160.806837 
L 205.128115 162.239248 
L 205.497651 162.239248 
L 205.867188 165.10407 
L 206.236724 166.536481 
L 206.60626 163.671659 
L 206.975797 165.10407 
L 207.345333 165.10407 
L 207.71487 166.536481 
L 208.084406 165.10407 
L 208.453942 167.968892 
L 208.823479 163.671659 
L 209.193015 163.671659 
L 209.562552 167.968892 
L 209.932088 167.968892 
L 210.301625 165.10407 
L 210.671161 167.968892 
L 211.040697 169.401303 
L 211.410234 173.698536 
L 211.77977 166.536481 
L 212.149307 166.536481 
L 212.518843 167.968892 
L 212.88838 165.10407 
L 213.627452 165.10407 
L 213.996989 167.968892 
L 214.366525 165.10407 
L 215.105598 167.968892 
L 215.475135 170.833714 
L 215.844671 170.833714 
L 216.583744 173.698536 
L 216.95328 176.563358 
L 217.322817 175.130947 
L 217.692353 176.563358 
L 218.061889 179.428181 
L 218.431426 179.428181 
L 218.800962 183.725414 
L 219.170499 182.293003 
L 219.540035 185.157825 
L 220.279108 185.157825 
L 220.648644 186.590236 
L 221.018181 185.157825 
L 221.387717 190.887469 
L 221.757254 186.590236 
L 222.12679 189.455058 
L 222.496327 190.887469 
L 222.865863 186.590236 
L 223.235399 190.887469 
L 223.604936 189.455058 
L 223.974472 190.887469 
L 224.344009 190.887469 
L 224.713545 189.455058 
L 225.083082 192.31988 
L 225.452618 196.617113 
L 225.822154 192.31988 
L 226.191691 195.184702 
L 226.561227 193.752291 
L 226.930764 195.184702 
L 227.3003 193.752291 
L 227.669837 189.455058 
L 228.039373 190.887469 
L 228.408909 189.455058 
L 228.778446 190.887469 
L 229.147982 189.455058 
L 229.517519 192.31988 
L 229.887055 192.31988 
L 230.256591 189.455058 
L 230.626128 190.887469 
L 230.995664 190.887469 
L 231.365201 186.590236 
L 231.734737 183.725414 
L 232.104274 182.293003 
L 232.47381 179.428181 
L 232.843346 175.130947 
L 233.212883 173.698536 
L 233.582419 173.698536 
L 234.321492 163.671659 
L 234.691029 165.10407 
L 235.060565 163.671659 
L 236.169174 163.671659 
L 236.538711 162.239248 
L 236.908247 162.239248 
L 237.277784 160.806837 
L 238.016856 155.077192 
L 238.386393 153.644781 
L 238.755929 153.644781 
L 239.125466 156.509604 
L 239.495002 150.779959 
L 239.864538 147.915137 
L 240.234075 152.21237 
L 240.973148 152.21237 
L 241.342684 155.077192 
L 241.712221 155.077192 
L 242.451293 160.806837 
L 242.82083 160.806837 
L 243.190366 159.374426 
L 243.929439 162.239248 
L 244.298976 160.806837 
L 244.668512 163.671659 
L 245.777121 167.968892 
L 246.146658 170.833714 
L 246.516194 172.266125 
L 246.885731 169.401303 
L 247.255267 170.833714 
L 247.624803 173.698536 
L 247.99434 175.130947 
L 248.363876 179.428181 
L 248.733413 179.428181 
L 249.102949 176.563358 
L 249.472486 179.428181 
L 249.842022 183.725414 
L 250.211558 183.725414 
L 250.581095 186.590236 
L 250.950631 188.022647 
L 251.320168 186.590236 
L 251.689704 189.455058 
L 252.05924 190.887469 
L 252.428777 186.590236 
L 252.798313 183.725414 
L 253.16785 186.590236 
L 253.537386 186.590236 
L 253.906923 185.157825 
L 254.276459 186.590236 
L 254.645995 189.455058 
L 255.015532 185.157825 
L 255.385068 185.157825 
L 255.754605 186.590236 
L 257.23275 186.590236 
L 257.602287 190.887469 
L 257.971823 188.022647 
L 258.34136 195.184702 
L 258.710896 192.31988 
L 259.080433 193.752291 
L 259.449969 190.887469 
L 259.819505 195.184702 
L 260.189042 190.887469 
L 260.558578 193.752291 
L 261.297651 193.752291 
L 261.667188 200.914347 
L 262.036724 195.184702 
L 262.40626 198.049524 
L 262.775797 198.049524 
L 263.145333 199.481936 
L 263.51487 199.481936 
L 263.884406 200.914347 
L 264.253942 199.481936 
L 264.623479 202.346758 
L 264.993015 202.346758 
L 265.362552 200.914347 
L 265.732088 208.076402 
L 266.101625 205.21158 
L 266.471161 203.779169 
L 266.840697 200.914347 
L 267.210234 203.779169 
L 267.57977 200.914347 
L 267.949307 203.779169 
L 268.318843 205.21158 
L 268.68838 205.21158 
L 269.057916 206.643991 
L 269.427452 205.21158 
L 269.796989 210.941224 
L 270.166525 208.076402 
L 270.536062 206.643991 
L 271.275135 206.643991 
L 271.644671 208.076402 
L 272.383744 208.076402 
L 272.75328 209.508813 
L 273.122817 209.508813 
L 273.492353 210.941224 
L 273.861889 208.076402 
L 274.231426 212.373635 
L 274.600962 213.806046 
L 274.970499 210.941224 
L 275.340035 212.373635 
L 275.709572 210.941224 
L 277.187717 210.941224 
L 277.557254 209.508813 
L 277.92679 206.643991 
L 278.296327 205.21158 
L 278.665863 205.21158 
L 279.035399 202.346758 
L 279.404936 203.779169 
L 279.774472 200.914347 
L 280.144009 200.914347 
L 280.513545 195.184702 
L 280.883082 196.617113 
L 281.252618 189.455058 
L 281.622154 185.157825 
L 281.991691 183.725414 
L 282.730764 183.725414 
L 283.469837 180.860592 
L 283.839373 183.725414 
L 284.208909 180.860592 
L 284.578446 182.293003 
L 285.317519 182.293003 
L 285.687055 183.725414 
L 286.056591 179.428181 
L 286.426128 177.99577 
L 286.795664 177.99577 
L 287.165201 179.428181 
L 287.534737 179.428181 
L 287.904274 175.130947 
L 288.27381 175.130947 
L 288.643346 170.833714 
L 289.012883 172.266125 
L 289.382419 176.563358 
L 289.751956 175.130947 
L 290.121492 177.99577 
L 290.491029 177.99577 
L 290.860565 183.725414 
L 291.599638 186.590236 
L 291.969174 183.725414 
L 292.338711 185.157825 
L 292.708247 183.725414 
L 293.077784 185.157825 
L 293.44732 188.022647 
L 293.816856 186.590236 
L 294.555929 186.590236 
L 294.925466 188.022647 
L 295.295002 188.022647 
L 295.664538 189.455058 
L 296.034075 188.022647 
L 296.773148 193.752291 
L 297.142684 195.184702 
L 297.512221 195.184702 
L 297.881757 196.617113 
L 298.251293 196.617113 
L 298.62083 195.184702 
L 298.990366 198.049524 
L 299.359903 195.184702 
L 300.098976 200.914347 
L 300.468512 198.049524 
L 300.838048 199.481936 
L 301.577121 199.481936 
L 301.946658 200.914347 
L 302.316194 199.481936 
L 302.685731 199.481936 
L 303.055267 203.779169 
L 303.424803 203.779169 
L 303.79434 202.346758 
L 304.163876 202.346758 
L 304.533413 199.481936 
L 304.902949 199.481936 
L 305.272486 202.346758 
L 305.642022 200.914347 
L 306.011558 200.914347 
L 306.381095 199.481936 
L 307.120168 199.481936 
L 307.489704 198.049524 
L 308.228777 198.049524 
L 308.598313 193.752291 
L 308.96785 192.31988 
L 309.337386 195.184702 
L 309.706923 192.31988 
L 310.076459 192.31988 
L 310.445995 186.590236 
L 310.815532 183.725414 
L 311.185068 177.99577 
L 311.554605 176.563358 
L 313.03275 152.21237 
L 314.14136 127.861382 
L 314.880433 114.969683 
L 315.249969 114.969683 
L 315.619505 116.402094 
L 316.728115 107.807627 
L 317.467188 110.672449 
L 317.836724 109.240038 
L 318.20626 110.672449 
L 318.945333 110.672449 
L 319.31487 117.834505 
L 319.684406 117.834505 
L 320.053942 119.266916 
L 320.423479 119.266916 
L 321.162552 122.131738 
L 321.532088 116.402094 
L 321.901625 123.564149 
L 322.271161 127.861382 
L 322.640697 130.726204 
L 323.010234 130.726204 
L 323.37977 129.293793 
L 323.749307 130.726204 
L 324.118843 129.293793 
L 325.596989 135.023437 
L 325.966525 139.320671 
L 326.336062 142.185493 
L 326.705598 146.482726 
L 327.444671 146.482726 
L 327.814207 147.915137 
L 328.183744 146.482726 
L 328.55328 146.482726 
L 328.922817 147.915137 
L 329.292353 147.915137 
L 329.661889 152.21237 
L 330.031426 153.644781 
L 330.770499 153.644781 
L 331.140035 149.347548 
L 331.509572 155.077192 
L 331.879108 157.942015 
L 332.248644 155.077192 
L 332.618181 153.644781 
L 332.987717 156.509604 
L 334.096327 156.509604 
L 334.465863 159.374426 
L 334.835399 163.671659 
L 335.204936 169.401303 
L 335.574472 169.401303 
L 335.944009 167.968892 
L 336.313545 170.833714 
L 336.683082 175.130947 
L 337.052618 175.130947 
L 337.791691 177.99577 
L 338.161227 176.563358 
L 338.9003 186.590236 
L 339.269837 182.293003 
L 339.639373 185.157825 
L 340.008909 183.725414 
L 340.378446 186.590236 
L 340.747982 186.590236 
L 341.117519 188.022647 
L 341.487055 185.157825 
L 341.856591 190.887469 
L 342.595664 193.752291 
L 343.334737 193.752291 
L 343.704274 192.31988 
L 344.07381 193.752291 
L 344.443346 198.049524 
L 344.812883 196.617113 
L 345.182419 196.617113 
L 345.551956 193.752291 
L 345.921492 198.049524 
L 346.660565 195.184702 
L 347.030101 195.184702 
L 347.399638 193.752291 
L 350.355929 205.21158 
L 350.725466 205.21158 
L 351.464538 202.346758 
L 351.834075 205.21158 
L 352.573148 205.21158 
L 353.681757 209.508813 
L 354.051293 209.508813 
L 354.42083 208.076402 
L 354.790366 209.508813 
L 355.159903 208.076402 
L 355.529439 212.373635 
L 355.898976 210.941224 
L 356.268512 212.373635 
L 356.638048 210.941224 
L 357.007585 213.806046 
L 357.377121 209.508813 
L 357.746658 209.508813 
L 358.116194 212.373635 
L 358.485731 210.941224 
L 359.59434 215.238457 
L 359.963876 213.806046 
L 360.333413 213.806046 
L 360.702949 215.238457 
L 361.072486 213.806046 
L 361.811558 216.670868 
L 362.550631 216.670868 
L 362.920168 203.779169 
L 363.289704 73.429762 
L 364.76785 147.915137 
L 365.506923 166.536481 
L 365.876459 166.536481 
L 366.615532 175.130947 
L 366.985068 175.130947 
L 367.354605 177.99577 
L 367.724141 177.99577 
L 368.093678 180.860592 
L 368.463214 180.860592 
L 369.202287 190.887469 
L 369.571823 195.184702 
L 369.94136 202.346758 
L 370.680433 210.941224 
L 371.049969 208.076402 
L 371.419505 212.373635 
L 371.789042 215.238457 
L 372.158578 212.373635 
L 372.528115 215.238457 
L 372.897651 215.238457 
L 373.267187 216.670868 
L 373.267187 216.670868 
" clip-path="url(#padf6c4028f)" style="fill: none; stroke: #1f77b4; stroke-width: 1.5; stroke-linecap: round"/>
   </g>
   <g id="line2d_18">
    <path d="M 42.901625 219.53569 
L 43.271161 202.346758 
L 44.010234 205.21158 
L 44.37977 213.806046 
L 44.749307 205.21158 
L 45.118843 206.643991 
L 45.48838 203.779169 
L 45.857916 208.076402 
L 46.596989 210.941224 
L 46.966525 206.643991 
L 47.336062 203.779169 
L 47.705598 198.049524 
L 48.075135 200.914347 
L 48.444671 188.022647 
L 48.814207 180.860592 
L 49.183744 177.99577 
L 49.55328 169.401303 
L 50.661889 169.401303 
L 51.031426 176.563358 
L 51.400962 169.401303 
L 51.770499 167.968892 
L 52.509572 170.833714 
L 52.879108 189.455058 
L 53.618181 179.428181 
L 53.987717 186.590236 
L 54.357254 198.049524 
L 54.72679 193.752291 
L 55.096327 198.049524 
L 55.465863 192.31988 
L 55.835399 192.31988 
L 56.204936 200.914347 
L 56.574472 202.346758 
L 56.944009 196.617113 
L 57.313545 203.779169 
L 57.683082 206.643991 
L 58.052618 205.21158 
L 58.422154 209.508813 
L 58.791691 210.941224 
L 59.161227 200.914347 
L 59.530764 202.346758 
L 59.9003 202.346758 
L 60.639373 210.941224 
L 61.008909 212.373635 
L 61.378446 216.670868 
L 61.747982 216.670868 
L 62.117519 210.941224 
L 62.487055 216.670868 
L 62.856591 213.806046 
L 63.226128 212.373635 
L 63.595664 219.53569 
L 63.965201 212.373635 
L 64.704274 222.400513 
L 65.07381 222.400513 
L 65.443346 225.265335 
L 65.812883 220.968102 
L 66.182419 223.832924 
L 66.551956 228.130157 
L 67.660565 223.832924 
L 68.030101 218.103279 
L 68.399638 215.238457 
L 68.769174 213.806046 
L 69.138711 193.752291 
L 69.508247 182.293003 
L 69.877784 182.293003 
L 70.24732 175.130947 
L 70.616856 175.130947 
L 71.355929 177.99577 
L 71.725466 176.563358 
L 72.095002 177.99577 
L 72.464538 175.130947 
L 72.834075 183.725414 
L 73.203611 186.590236 
L 73.573148 192.31988 
L 73.942684 190.887469 
L 74.312221 195.184702 
L 74.681757 198.049524 
L 75.051293 199.481936 
L 75.790366 199.481936 
L 76.159903 200.914347 
L 76.529439 196.617113 
L 77.268512 193.752291 
L 77.638048 196.617113 
L 78.007585 196.617113 
L 78.377121 202.346758 
L 78.746658 205.21158 
L 79.116194 193.752291 
L 79.485731 198.049524 
L 79.855267 195.184702 
L 80.224803 193.752291 
L 80.59434 185.157825 
L 80.963876 198.049524 
L 81.333413 200.914347 
L 81.702949 199.481936 
L 82.072486 196.617113 
L 82.442022 199.481936 
L 82.811558 198.049524 
L 83.181095 202.346758 
L 83.550631 205.21158 
L 83.920168 206.643991 
L 84.289704 199.481936 
L 84.65924 198.049524 
L 85.028777 198.049524 
L 85.76785 200.914347 
L 86.137386 200.914347 
L 86.506923 193.752291 
L 86.876459 193.752291 
L 87.615532 172.266125 
L 87.985068 172.266125 
L 88.354605 157.942015 
L 88.724141 162.239248 
L 89.093678 165.10407 
L 89.463214 162.239248 
L 89.83275 163.671659 
L 90.202287 166.536481 
L 90.571823 170.833714 
L 90.94136 180.860592 
L 91.310896 177.99577 
L 91.680433 177.99577 
L 92.049969 180.860592 
L 92.419505 177.99577 
L 92.789042 179.428181 
L 93.158578 183.725414 
L 93.528115 186.590236 
L 93.897651 185.157825 
L 94.267188 186.590236 
L 94.636724 186.590236 
L 95.00626 179.428181 
L 95.375797 183.725414 
L 95.745333 183.725414 
L 96.11487 185.157825 
L 96.484406 189.455058 
L 96.853942 183.725414 
L 97.223479 188.022647 
L 97.593015 188.022647 
L 97.962552 185.157825 
L 98.332088 183.725414 
L 98.701625 183.725414 
L 99.071161 185.157825 
L 99.440697 175.130947 
L 99.810234 173.698536 
L 100.17977 166.536481 
L 100.549307 167.968892 
L 100.918843 162.239248 
L 101.28838 160.806837 
L 102.027452 160.806837 
L 102.396989 157.942015 
L 102.766525 156.509604 
L 103.136062 166.536481 
L 103.505598 162.239248 
L 103.875135 163.671659 
L 104.244671 172.266125 
L 104.614207 175.130947 
L 104.983744 170.833714 
L 105.35328 177.99577 
L 105.722817 176.563358 
L 106.092353 177.99577 
L 106.831426 183.725414 
L 107.570499 175.130947 
L 107.940035 176.563358 
L 108.309572 179.428181 
L 108.679108 176.563358 
L 109.048644 177.99577 
L 109.418181 175.130947 
L 109.787717 173.698536 
L 110.157254 177.99577 
L 110.52679 177.99577 
L 110.896327 170.833714 
L 111.265863 175.130947 
L 111.635399 172.266125 
L 112.004936 176.563358 
L 112.374472 172.266125 
L 113.113545 172.266125 
L 113.483082 175.130947 
L 113.852618 172.266125 
L 114.222154 173.698536 
L 114.591691 172.266125 
L 114.961227 175.130947 
L 115.7003 177.99577 
L 116.069837 180.860592 
L 116.439373 182.293003 
L 117.178446 179.428181 
L 117.547982 182.293003 
L 117.917519 177.99577 
L 118.287055 182.293003 
L 118.656591 175.130947 
L 119.026128 182.293003 
L 119.395664 182.293003 
L 119.765201 188.022647 
L 120.134737 185.157825 
L 120.504274 190.887469 
L 120.87381 192.31988 
L 121.243346 189.455058 
L 121.612883 193.752291 
L 121.982419 189.455058 
L 122.351956 193.752291 
L 122.721492 195.184702 
L 123.091029 199.481936 
L 123.460565 198.049524 
L 123.830101 198.049524 
L 124.199638 192.31988 
L 124.569174 196.617113 
L 124.938711 198.049524 
L 125.308247 196.617113 
L 125.677784 199.481936 
L 126.04732 196.617113 
L 126.416856 200.914347 
L 126.786393 198.049524 
L 127.155929 189.455058 
L 127.525466 192.31988 
L 127.895002 193.752291 
L 128.264538 196.617113 
L 129.003611 193.752291 
L 129.373148 193.752291 
L 129.742684 196.617113 
L 130.481757 186.590236 
L 130.851293 192.31988 
L 131.590366 195.184702 
L 131.959903 193.752291 
L 132.329439 198.049524 
L 132.698976 199.481936 
L 133.068512 199.481936 
L 133.438048 196.617113 
L 133.807585 195.184702 
L 134.177121 199.481936 
L 134.546658 202.346758 
L 134.916194 202.346758 
L 135.285731 200.914347 
L 136.763876 200.914347 
L 137.133413 199.481936 
L 137.502949 200.914347 
L 137.872486 198.049524 
L 138.242022 200.914347 
L 138.611558 198.049524 
L 139.350631 195.184702 
L 139.720168 202.346758 
L 140.089704 202.346758 
L 140.45924 196.617113 
L 140.828777 193.752291 
L 141.198313 186.590236 
L 141.56785 188.022647 
L 141.937386 185.157825 
L 142.306923 185.157825 
L 142.676459 183.725414 
L 143.045995 180.860592 
L 143.415532 176.563358 
L 143.785068 175.130947 
L 144.154605 167.968892 
L 144.524141 167.968892 
L 144.893678 169.401303 
L 145.263214 169.401303 
L 145.63275 165.10407 
L 146.371823 167.968892 
L 146.74136 167.968892 
L 147.110896 166.536481 
L 147.480433 166.536481 
L 148.219505 169.401303 
L 148.589042 166.536481 
L 148.958578 169.401303 
L 149.328115 170.833714 
L 149.697651 175.130947 
L 150.067187 170.833714 
L 150.436724 170.833714 
L 150.80626 172.266125 
L 151.545333 166.536481 
L 151.91487 167.968892 
L 152.284406 170.833714 
L 152.653942 169.401303 
L 153.023479 177.99577 
L 153.393015 177.99577 
L 153.762552 179.428181 
L 154.132088 177.99577 
L 154.501625 180.860592 
L 154.871161 179.428181 
L 155.240697 185.157825 
L 155.610234 180.860592 
L 156.349307 180.860592 
L 156.718843 179.428181 
L 157.08838 185.157825 
L 157.457916 180.860592 
L 158.196989 177.99577 
L 158.566525 177.99577 
L 159.305598 180.860592 
L 159.675135 176.563358 
L 160.044671 173.698536 
L 160.414207 169.401303 
L 160.783744 173.698536 
L 161.15328 165.10407 
L 161.522817 165.10407 
L 161.892353 153.644781 
L 162.261889 147.915137 
L 162.631426 135.023437 
L 163.000962 136.455849 
L 163.370499 129.293793 
L 163.740035 129.293793 
L 164.109572 126.428971 
L 164.479108 132.158615 
L 165.218181 135.023437 
L 165.587717 137.88826 
L 165.957254 135.023437 
L 166.32679 137.88826 
L 166.696327 136.455849 
L 167.065863 139.320671 
L 167.435399 140.753082 
L 167.804936 143.617904 
L 168.174472 143.617904 
L 168.544009 150.779959 
L 168.913545 146.482726 
L 169.283082 140.753082 
L 169.652618 137.88826 
L 170.022154 142.185493 
L 170.761227 142.185493 
L 171.130764 145.050315 
L 171.5003 145.050315 
L 171.869837 143.617904 
L 172.239373 143.617904 
L 172.608909 146.482726 
L 172.978446 153.644781 
L 173.347982 146.482726 
L 173.717519 152.21237 
L 174.087055 150.779959 
L 174.456591 150.779959 
L 174.826128 153.644781 
L 175.195664 150.779959 
L 175.565201 159.374426 
L 175.934737 157.942015 
L 176.304274 163.671659 
L 176.67381 163.671659 
L 177.043346 165.10407 
L 177.412883 163.671659 
L 177.782419 163.671659 
L 178.151956 157.942015 
L 178.521492 163.671659 
L 178.891029 163.671659 
L 179.260565 170.833714 
L 179.630101 166.536481 
L 179.999638 166.536481 
L 180.369174 167.968892 
L 180.738711 167.968892 
L 181.108247 169.401303 
L 181.477784 169.401303 
L 181.84732 170.833714 
L 182.216856 169.401303 
L 182.586393 172.266125 
L 182.955929 165.10407 
L 183.325466 170.833714 
L 183.695002 167.968892 
L 184.064538 170.833714 
L 185.173148 166.536481 
L 185.542684 167.968892 
L 186.281757 159.374426 
L 186.651293 157.942015 
L 187.02083 155.077192 
L 187.390366 155.077192 
L 187.759903 162.239248 
L 188.129439 156.509604 
L 188.498976 157.942015 
L 188.868512 157.942015 
L 189.238048 155.077192 
L 189.607585 156.509604 
L 189.977121 156.509604 
L 190.346658 157.942015 
L 190.716194 155.077192 
L 191.085731 155.077192 
L 191.455267 156.509604 
L 191.824803 156.509604 
L 192.19434 150.779959 
L 192.563876 147.915137 
L 193.302949 145.050315 
L 193.672486 145.050315 
L 194.042022 139.320671 
L 194.411558 139.320671 
L 194.781095 133.591026 
L 195.150631 133.591026 
L 195.520168 135.023437 
L 195.889704 129.293793 
L 196.25924 132.158615 
L 196.628777 130.726204 
L 196.998313 126.428971 
L 197.36785 120.699327 
L 197.737386 117.834505 
L 198.106923 122.131738 
L 198.476459 124.99656 
L 198.845995 126.428971 
L 199.215532 130.726204 
L 199.585068 130.726204 
L 199.954605 124.99656 
L 200.324141 137.88826 
L 200.693678 137.88826 
L 201.063214 142.185493 
L 201.43275 145.050315 
L 201.802287 149.347548 
L 202.171823 147.915137 
L 202.54136 153.644781 
L 202.910896 155.077192 
L 203.649969 155.077192 
L 204.389042 160.806837 
L 205.128115 155.077192 
L 205.497651 160.806837 
L 205.867188 156.509604 
L 206.236724 160.806837 
L 206.60626 160.806837 
L 206.975797 157.942015 
L 207.345333 160.806837 
L 207.71487 159.374426 
L 208.084406 159.374426 
L 208.453942 157.942015 
L 208.823479 159.374426 
L 209.193015 157.942015 
L 209.562552 162.239248 
L 209.932088 160.806837 
L 210.671161 163.671659 
L 211.040697 163.671659 
L 211.410234 167.968892 
L 211.77977 160.806837 
L 212.518843 160.806837 
L 212.88838 162.239248 
L 213.257916 162.239248 
L 213.627452 166.536481 
L 213.996989 167.968892 
L 215.105598 167.968892 
L 215.475135 173.698536 
L 215.844671 172.266125 
L 216.214207 172.266125 
L 216.583744 170.833714 
L 216.95328 176.563358 
L 217.322817 177.99577 
L 217.692353 180.860592 
L 218.800962 180.860592 
L 219.170499 179.428181 
L 219.540035 180.860592 
L 219.909572 183.725414 
L 220.279108 183.725414 
L 220.648644 182.293003 
L 221.018181 185.157825 
L 221.387717 186.590236 
L 221.757254 186.590236 
L 222.12679 189.455058 
L 222.865863 186.590236 
L 223.974472 190.887469 
L 224.344009 190.887469 
L 224.713545 189.455058 
L 225.083082 193.752291 
L 226.191691 189.455058 
L 226.561227 186.590236 
L 226.930764 186.590236 
L 227.669837 192.31988 
L 228.039373 189.455058 
L 228.778446 189.455058 
L 229.147982 190.887469 
L 229.517519 189.455058 
L 229.887055 190.887469 
L 230.256591 189.455058 
L 230.626128 189.455058 
L 230.995664 192.31988 
L 232.104274 183.725414 
L 232.47381 185.157825 
L 232.843346 182.293003 
L 233.212883 182.293003 
L 233.582419 177.99577 
L 233.951956 179.428181 
L 234.321492 176.563358 
L 234.691029 177.99577 
L 235.060565 172.266125 
L 235.430101 173.698536 
L 235.799638 176.563358 
L 236.169174 173.698536 
L 236.538711 175.130947 
L 236.908247 172.266125 
L 237.277784 170.833714 
L 237.64732 167.968892 
L 238.016856 170.833714 
L 238.386393 167.968892 
L 239.125466 167.968892 
L 239.864538 162.239248 
L 240.234075 162.239248 
L 240.603611 163.671659 
L 240.973148 163.671659 
L 241.342684 169.401303 
L 242.081757 163.671659 
L 242.451293 166.536481 
L 242.82083 167.968892 
L 243.190366 173.698536 
L 243.559903 170.833714 
L 243.929439 169.401303 
L 244.298976 170.833714 
L 244.668512 173.698536 
L 245.038048 175.130947 
L 245.407585 175.130947 
L 245.777121 173.698536 
L 246.146658 173.698536 
L 246.516194 175.130947 
L 247.255267 175.130947 
L 247.624803 173.698536 
L 247.99434 176.563358 
L 248.363876 180.860592 
L 248.733413 179.428181 
L 249.102949 182.293003 
L 249.472486 180.860592 
L 249.842022 182.293003 
L 250.211558 185.157825 
L 250.950631 188.022647 
L 251.320168 186.590236 
L 251.689704 188.022647 
L 252.05924 188.022647 
L 252.428777 182.293003 
L 252.798313 188.022647 
L 253.16785 185.157825 
L 253.537386 183.725414 
L 253.906923 186.590236 
L 254.276459 185.157825 
L 254.645995 185.157825 
L 255.015532 188.022647 
L 255.385068 188.022647 
L 255.754605 183.725414 
L 256.124141 189.455058 
L 256.493678 190.887469 
L 256.863214 188.022647 
L 257.23275 188.022647 
L 257.602287 190.887469 
L 257.971823 189.455058 
L 258.710896 192.31988 
L 259.080433 189.455058 
L 259.449969 189.455058 
L 259.819505 185.157825 
L 260.189042 190.887469 
L 260.558578 189.455058 
L 261.297651 195.184702 
L 261.667188 192.31988 
L 262.036724 195.184702 
L 262.40626 195.184702 
L 262.775797 196.617113 
L 263.145333 195.184702 
L 263.51487 199.481936 
L 263.884406 199.481936 
L 264.253942 198.049524 
L 265.362552 198.049524 
L 265.732088 200.914347 
L 266.101625 202.346758 
L 266.471161 200.914347 
L 266.840697 202.346758 
L 267.210234 200.914347 
L 267.57977 200.914347 
L 267.949307 199.481936 
L 268.318843 200.914347 
L 268.68838 203.779169 
L 269.057916 203.779169 
L 269.427452 202.346758 
L 269.796989 203.779169 
L 270.166525 200.914347 
L 270.536062 206.643991 
L 270.905598 203.779169 
L 271.275135 202.346758 
L 271.644671 205.21158 
L 272.014207 203.779169 
L 272.383744 208.076402 
L 272.75328 206.643991 
L 273.122817 208.076402 
L 273.861889 208.076402 
L 274.231426 205.21158 
L 274.600962 209.508813 
L 274.970499 206.643991 
L 275.340035 208.076402 
L 276.079108 205.21158 
L 276.448644 209.508813 
L 276.818181 210.941224 
L 277.187717 209.508813 
L 277.557254 212.373635 
L 277.92679 208.076402 
L 278.296327 206.643991 
L 278.665863 206.643991 
L 279.035399 205.21158 
L 279.404936 206.643991 
L 279.774472 203.779169 
L 280.144009 202.346758 
L 280.513545 198.049524 
L 281.622154 189.455058 
L 281.991691 185.157825 
L 282.361227 188.022647 
L 282.730764 188.022647 
L 283.1003 186.590236 
L 283.469837 182.293003 
L 283.839373 185.157825 
L 284.208909 186.590236 
L 284.578446 185.157825 
L 284.947982 188.022647 
L 285.317519 188.022647 
L 285.687055 186.590236 
L 286.056591 186.590236 
L 286.426128 185.157825 
L 286.795664 189.455058 
L 287.165201 186.590236 
L 287.534737 185.157825 
L 288.27381 185.157825 
L 288.643346 182.293003 
L 289.012883 185.157825 
L 289.382419 183.725414 
L 289.751956 183.725414 
L 290.121492 185.157825 
L 290.491029 189.455058 
L 290.860565 186.590236 
L 291.230101 185.157825 
L 291.599638 188.022647 
L 291.969174 183.725414 
L 292.338711 189.455058 
L 292.708247 189.455058 
L 293.077784 186.590236 
L 293.44732 188.022647 
L 293.816856 192.31988 
L 294.186393 192.31988 
L 294.555929 190.887469 
L 295.295002 193.752291 
L 295.664538 193.752291 
L 296.034075 190.887469 
L 296.403611 193.752291 
L 296.773148 192.31988 
L 297.142684 192.31988 
L 297.512221 193.752291 
L 297.881757 193.752291 
L 298.251293 196.617113 
L 298.62083 193.752291 
L 299.359903 193.752291 
L 299.729439 196.617113 
L 300.098976 198.049524 
L 300.468512 198.049524 
L 300.838048 199.481936 
L 301.207585 199.481936 
L 301.577121 202.346758 
L 302.316194 199.481936 
L 302.685731 200.914347 
L 303.055267 199.481936 
L 303.424803 203.779169 
L 303.79434 202.346758 
L 304.163876 203.779169 
L 304.533413 202.346758 
L 304.902949 205.21158 
L 305.272486 205.21158 
L 305.642022 203.779169 
L 306.011558 205.21158 
L 306.381095 203.779169 
L 306.750631 200.914347 
L 307.120168 200.914347 
L 307.489704 202.346758 
L 307.85924 200.914347 
L 308.228777 200.914347 
L 308.598313 196.617113 
L 309.337386 199.481936 
L 309.706923 195.184702 
L 310.076459 198.049524 
L 310.445995 192.31988 
L 310.815532 190.887469 
L 311.185068 190.887469 
L 311.554605 182.293003 
L 311.924141 188.022647 
L 312.663214 177.99577 
L 313.03275 173.698536 
L 313.402287 166.536481 
L 314.14136 157.942015 
L 314.510896 157.942015 
L 315.249969 147.915137 
L 315.989042 147.915137 
L 316.728115 142.185493 
L 317.097651 143.617904 
L 317.467188 142.185493 
L 317.836724 146.482726 
L 318.20626 143.617904 
L 318.945333 140.753082 
L 319.31487 140.753082 
L 319.684406 147.915137 
L 320.053942 145.050315 
L 320.423479 143.617904 
L 320.793015 143.617904 
L 321.162552 142.185493 
L 321.532088 137.88826 
L 321.901625 145.050315 
L 322.640697 145.050315 
L 323.010234 146.482726 
L 323.37977 145.050315 
L 324.118843 145.050315 
L 324.48838 146.482726 
L 324.857916 145.050315 
L 325.227452 142.185493 
L 325.596989 146.482726 
L 325.966525 147.915137 
L 326.336062 147.915137 
L 327.444671 152.21237 
L 327.814207 152.21237 
L 328.183744 153.644781 
L 328.55328 153.644781 
L 328.922817 152.21237 
L 329.661889 157.942015 
L 330.400962 157.942015 
L 330.770499 153.644781 
L 331.140035 155.077192 
L 331.509572 157.942015 
L 331.879108 159.374426 
L 332.618181 165.10407 
L 332.987717 162.239248 
L 333.357254 169.401303 
L 333.72679 170.833714 
L 334.096327 170.833714 
L 334.465863 169.401303 
L 335.204936 172.266125 
L 335.574472 176.563358 
L 335.944009 175.130947 
L 336.313545 172.266125 
L 336.683082 179.428181 
L 337.052618 177.99577 
L 337.422154 183.725414 
L 337.791691 179.428181 
L 338.161227 180.860592 
L 338.530764 180.860592 
L 339.269837 183.725414 
L 339.639373 189.455058 
L 340.008909 188.022647 
L 340.378446 190.887469 
L 340.747982 190.887469 
L 341.487055 188.022647 
L 341.856591 193.752291 
L 342.226128 192.31988 
L 342.595664 195.184702 
L 343.704274 195.184702 
L 344.07381 196.617113 
L 344.443346 196.617113 
L 344.812883 198.049524 
L 345.182419 193.752291 
L 345.551956 195.184702 
L 345.921492 198.049524 
L 346.291029 198.049524 
L 346.660565 202.346758 
L 347.030101 198.049524 
L 347.399638 198.049524 
L 348.138711 200.914347 
L 348.508247 200.914347 
L 348.877784 199.481936 
L 349.24732 200.914347 
L 349.616856 205.21158 
L 349.986393 202.346758 
L 351.095002 206.643991 
L 351.464538 205.21158 
L 351.834075 206.643991 
L 352.203611 209.508813 
L 352.573148 208.076402 
L 352.942684 208.076402 
L 353.312221 209.508813 
L 353.681757 208.076402 
L 354.051293 209.508813 
L 354.790366 215.238457 
L 355.159903 210.941224 
L 355.529439 212.373635 
L 355.898976 212.373635 
L 356.268512 215.238457 
L 356.638048 212.373635 
L 357.377121 212.373635 
L 357.746658 210.941224 
L 358.485731 213.806046 
L 358.855267 216.670868 
L 359.224803 215.238457 
L 359.59434 215.238457 
L 359.963876 213.806046 
L 360.333413 215.238457 
L 360.702949 218.103279 
L 361.442022 215.238457 
L 361.811558 215.238457 
L 362.550631 218.103279 
L 362.920168 203.779169 
L 363.289704 36.187074 
L 363.65924 59.105651 
L 364.028777 100.645572 
L 364.398313 113.537271 
L 364.76785 143.617904 
L 365.137386 150.779959 
L 365.506923 169.401303 
L 365.876459 175.130947 
L 366.245995 170.833714 
L 366.615532 176.563358 
L 367.354605 182.293003 
L 367.724141 183.725414 
L 368.093678 188.022647 
L 368.463214 185.157825 
L 368.83275 192.31988 
L 369.202287 195.184702 
L 369.571823 202.346758 
L 369.94136 200.914347 
L 370.680433 210.941224 
L 371.419505 210.941224 
L 371.789042 215.238457 
L 372.158578 216.670868 
L 372.528115 215.238457 
L 372.897651 215.238457 
L 373.267187 218.103279 
L 373.267187 218.103279 
" clip-path="url(#padf6c4028f)" style="fill: none; stroke: #ff7f0e; stroke-width: 1.5; stroke-linecap: round"/>
   </g>
   <g id="patch_3">
    <path d="M 38.467188 243.743437 
L 38.467188 26.303437 
" style="fill: none; stroke: #cccccc; stroke-width: 0.8; stroke-linejoin: miter; stroke-linecap: square"/>
   </g>
   <g id="patch_4">
    <path d="M 373.267188 243.743437 
L 373.267188 26.303437 
" style="fill: none; stroke: #cccccc; stroke-width: 0.8; stroke-linejoin: miter; stroke-linecap: square"/>
   </g>
   <g id="patch_5">
    <path d="M 38.467187 243.743437 
L 373.267187 243.743437 
" style="fill: none; stroke: #cccccc; stroke-width: 0.8; stroke-linejoin: miter; stroke-linecap: square"/>
   </g>
   <g id="patch_6">
    <path d="M 38.467187 26.303437 
L 373.267187 26.303437 
" style="fill: none; stroke: #cccccc; stroke-width: 0.8; stroke-linejoin: miter; stroke-linecap: square"/>
   </g>
   <g id="text_19">
    <!-- Unemployment Rate by Gender -->
    <g style="fill: #262626" transform="translate(79.313125 20.303437)scale(0.18 -0.18)">
     <defs>
      <path id="ArialMT-55" d="M 3500 4581 
L 4106 4581 
L 4106 1934 
Q 4106 1244 3950 837 
Q 3794 431 3386 176 
Q 2978 -78 2316 -78 
Q 1672 -78 1262 144 
Q 853 366 678 786 
Q 503 1206 503 1934 
L 503 4581 
L 1109 4581 
L 1109 1938 
Q 1109 1341 1220 1058 
Q 1331 775 1601 622 
Q 1872 469 2263 469 
Q 2931 469 3215 772 
Q 3500 1075 3500 1938 
L 3500 4581 
z
" transform="scale(0.015625)"/>
      <path id="ArialMT-6e" d="M 422 0 
L 422 3319 
L 928 3319 
L 928 2847 
Q 1294 3394 1984 3394 
Q 2284 3394 2536 3286 
Q 2788 3178 2913 3003 
Q 3038 2828 3088 2588 
Q 3119 2431 3119 2041 
L 3119 0 
L 2556 0 
L 2556 2019 
Q 2556 2363 2490 2533 
Q 2425 2703 2258 2804 
Q 2091 2906 1866 2906 
Q 1506 2906 1245 2678 
Q 984 2450 984 1813 
L 984 0 
L 422 0 
z
" transform="scale(0.015625)"/>
      <path id="ArialMT-65" d="M 2694 1069 
L 3275 997 
Q 3138 488 2766 206 
Q 2394 -75 1816 -75 
Q 1088 -75 661 373 
Q 234 822 234 1631 
Q 234 2469 665 2931 
Q 1097 3394 1784 3394 
Q 2450 3394 2872 2941 
Q 3294 2488 3294 1666 
Q 3294 1616 3291 1516 
L 816 1516 
Q 847 969 1125 678 
Q 1403 388 1819 388 
Q 2128 388 2347 550 
Q 2566 713 2694 1069 
z
M 847 1978 
L 2700 1978 
Q 2663 2397 2488 2606 
Q 2219 2931 1791 2931 
Q 1403 2931 1139 2672 
Q 875 2413 847 1978 
z
" transform="scale(0.015625)"/>
      <path id="ArialMT-6d" d="M 422 0 
L 422 3319 
L 925 3319 
L 925 2853 
Q 1081 3097 1340 3245 
Q 1600 3394 1931 3394 
Q 2300 3394 2536 3241 
Q 2772 3088 2869 2813 
Q 3263 3394 3894 3394 
Q 4388 3394 4653 3120 
Q 4919 2847 4919 2278 
L 4919 0 
L 4359 0 
L 4359 2091 
Q 4359 2428 4304 2576 
Q 4250 2725 4106 2815 
Q 3963 2906 3769 2906 
Q 3419 2906 3187 2673 
Q 2956 2441 2956 1928 
L 2956 0 
L 2394 0 
L 2394 2156 
Q 2394 2531 2256 2718 
Q 2119 2906 1806 2906 
Q 1569 2906 1367 2781 
Q 1166 2656 1075 2415 
Q 984 2175 984 1722 
L 984 0 
L 422 0 
z
" transform="scale(0.015625)"/>
      <path id="ArialMT-70" d="M 422 -1272 
L 422 3319 
L 934 3319 
L 934 2888 
Q 1116 3141 1344 3267 
Q 1572 3394 1897 3394 
Q 2322 3394 2647 3175 
Q 2972 2956 3137 2557 
Q 3303 2159 3303 1684 
Q 3303 1175 3120 767 
Q 2938 359 2589 142 
Q 2241 -75 1856 -75 
Q 1575 -75 1351 44 
Q 1128 163 984 344 
L 984 -1272 
L 422 -1272 
z
M 931 1641 
Q 931 1000 1190 694 
Q 1450 388 1819 388 
Q 2194 388 2461 705 
Q 2728 1022 2728 1688 
Q 2728 2322 2467 2637 
Q 2206 2953 1844 2953 
Q 1484 2953 1207 2617 
Q 931 2281 931 1641 
z
" transform="scale(0.015625)"/>
      <path id="ArialMT-6c" d="M 409 0 
L 409 4581 
L 972 4581 
L 972 0 
L 409 0 
z
" transform="scale(0.015625)"/>
      <path id="ArialMT-6f" d="M 213 1659 
Q 213 2581 725 3025 
Q 1153 3394 1769 3394 
Q 2453 3394 2887 2945 
Q 3322 2497 3322 1706 
Q 3322 1066 3130 698 
Q 2938 331 2570 128 
Q 2203 -75 1769 -75 
Q 1072 -75 642 372 
Q 213 819 213 1659 
z
M 791 1659 
Q 791 1022 1069 705 
Q 1347 388 1769 388 
Q 2188 388 2466 706 
Q 2744 1025 2744 1678 
Q 2744 2294 2464 2611 
Q 2184 2928 1769 2928 
Q 1347 2928 1069 2612 
Q 791 2297 791 1659 
z
" transform="scale(0.015625)"/>
      <path id="ArialMT-79" d="M 397 -1278 
L 334 -750 
Q 519 -800 656 -800 
Q 844 -800 956 -737 
Q 1069 -675 1141 -563 
Q 1194 -478 1313 -144 
Q 1328 -97 1363 -6 
L 103 3319 
L 709 3319 
L 1400 1397 
Q 1534 1031 1641 628 
Q 1738 1016 1872 1384 
L 2581 3319 
L 3144 3319 
L 1881 -56 
Q 1678 -603 1566 -809 
Q 1416 -1088 1222 -1217 
Q 1028 -1347 759 -1347 
Q 597 -1347 397 -1278 
z
" transform="scale(0.015625)"/>
      <path id="ArialMT-74" d="M 1650 503 
L 1731 6 
Q 1494 -44 1306 -44 
Q 1000 -44 831 53 
Q 663 150 594 308 
Q 525 466 525 972 
L 525 2881 
L 113 2881 
L 113 3319 
L 525 3319 
L 525 4141 
L 1084 4478 
L 1084 3319 
L 1650 3319 
L 1650 2881 
L 1084 2881 
L 1084 941 
Q 1084 700 1114 631 
Q 1144 563 1211 522 
Q 1278 481 1403 481 
Q 1497 481 1650 503 
z
" transform="scale(0.015625)"/>
      <path id="ArialMT-20" transform="scale(0.015625)"/>
      <path id="ArialMT-52" d="M 503 0 
L 503 4581 
L 2534 4581 
Q 3147 4581 3465 4457 
Q 3784 4334 3975 4021 
Q 4166 3709 4166 3331 
Q 4166 2844 3850 2509 
Q 3534 2175 2875 2084 
Q 3116 1969 3241 1856 
Q 3506 1613 3744 1247 
L 4541 0 
L 3778 0 
L 3172 953 
Q 2906 1366 2734 1584 
Q 2563 1803 2427 1890 
Q 2291 1978 2150 2013 
Q 2047 2034 1813 2034 
L 1109 2034 
L 1109 0 
L 503 0 
z
M 1109 2559 
L 2413 2559 
Q 2828 2559 3062 2645 
Q 3297 2731 3419 2920 
Q 3541 3109 3541 3331 
Q 3541 3656 3305 3865 
Q 3069 4075 2559 4075 
L 1109 4075 
L 1109 2559 
z
" transform="scale(0.015625)"/>
      <path id="ArialMT-61" d="M 2588 409 
Q 2275 144 1986 34 
Q 1697 -75 1366 -75 
Q 819 -75 525 192 
Q 231 459 231 875 
Q 231 1119 342 1320 
Q 453 1522 633 1644 
Q 813 1766 1038 1828 
Q 1203 1872 1538 1913 
Q 2219 1994 2541 2106 
Q 2544 2222 2544 2253 
Q 2544 2597 2384 2738 
Q 2169 2928 1744 2928 
Q 1347 2928 1158 2789 
Q 969 2650 878 2297 
L 328 2372 
Q 403 2725 575 2942 
Q 747 3159 1072 3276 
Q 1397 3394 1825 3394 
Q 2250 3394 2515 3294 
Q 2781 3194 2906 3042 
Q 3031 2891 3081 2659 
Q 3109 2516 3109 2141 
L 3109 1391 
Q 3109 606 3145 398 
Q 3181 191 3288 0 
L 2700 0 
Q 2613 175 2588 409 
z
M 2541 1666 
Q 2234 1541 1622 1453 
Q 1275 1403 1131 1340 
Q 988 1278 909 1158 
Q 831 1038 831 891 
Q 831 666 1001 516 
Q 1172 366 1500 366 
Q 1825 366 2078 508 
Q 2331 650 2450 897 
Q 2541 1088 2541 1459 
L 2541 1666 
z
" transform="scale(0.015625)"/>
      <path id="ArialMT-62" d="M 941 0 
L 419 0 
L 419 4581 
L 981 4581 
L 981 2947 
Q 1338 3394 1891 3394 
Q 2197 3394 2470 3270 
Q 2744 3147 2920 2923 
Q 3097 2700 3197 2384 
Q 3297 2069 3297 1709 
Q 3297 856 2875 390 
Q 2453 -75 1863 -75 
Q 1275 -75 941 416 
L 941 0 
z
M 934 1684 
Q 934 1088 1097 822 
Q 1363 388 1816 388 
Q 2184 388 2453 708 
Q 2722 1028 2722 1663 
Q 2722 2313 2464 2622 
Q 2206 2931 1841 2931 
Q 1472 2931 1203 2611 
Q 934 2291 934 1684 
z
" transform="scale(0.015625)"/>
      <path id="ArialMT-47" d="M 2638 1797 
L 2638 2334 
L 4578 2338 
L 4578 638 
Q 4131 281 3656 101 
Q 3181 -78 2681 -78 
Q 2006 -78 1454 211 
Q 903 500 622 1047 
Q 341 1594 341 2269 
Q 341 2938 620 3517 
Q 900 4097 1425 4378 
Q 1950 4659 2634 4659 
Q 3131 4659 3532 4498 
Q 3934 4338 4162 4050 
Q 4391 3763 4509 3300 
L 3963 3150 
Q 3859 3500 3706 3700 
Q 3553 3900 3268 4020 
Q 2984 4141 2638 4141 
Q 2222 4141 1919 4014 
Q 1616 3888 1430 3681 
Q 1244 3475 1141 3228 
Q 966 2803 966 2306 
Q 966 1694 1177 1281 
Q 1388 869 1791 669 
Q 2194 469 2647 469 
Q 3041 469 3416 620 
Q 3791 772 3984 944 
L 3984 1797 
L 2638 1797 
z
" transform="scale(0.015625)"/>
      <path id="ArialMT-64" d="M 2575 0 
L 2575 419 
Q 2259 -75 1647 -75 
Q 1250 -75 917 144 
Q 584 363 401 755 
Q 219 1147 219 1656 
Q 219 2153 384 2558 
Q 550 2963 881 3178 
Q 1213 3394 1622 3394 
Q 1922 3394 2156 3267 
Q 2391 3141 2538 2938 
L 2538 4581 
L 3097 4581 
L 3097 0 
L 2575 0 
z
M 797 1656 
Q 797 1019 1065 703 
Q 1334 388 1700 388 
Q 2069 388 2326 689 
Q 2584 991 2584 1609 
Q 2584 2291 2321 2609 
Q 2059 2928 1675 2928 
Q 1300 2928 1048 2622 
Q 797 2316 797 1656 
z
" transform="scale(0.015625)"/>
      <path id="ArialMT-72" d="M 416 0 
L 416 3319 
L 922 3319 
L 922 2816 
Q 1116 3169 1280 3281 
Q 1444 3394 1641 3394 
Q 1925 3394 2219 3213 
L 2025 2691 
Q 1819 2813 1613 2813 
Q 1428 2813 1281 2702 
Q 1134 2591 1072 2394 
Q 978 2094 978 1738 
L 978 0 
L 416 0 
z
" transform="scale(0.015625)"/>
     </defs>
     <use xlink:href="#ArialMT-55"/>
     <use xlink:href="#ArialMT-6e" x="72.216797"/>
     <use xlink:href="#ArialMT-65" x="127.832031"/>
     <use xlink:href="#ArialMT-6d" x="183.447266"/>
     <use xlink:href="#ArialMT-70" x="266.748047"/>
     <use xlink:href="#ArialMT-6c" x="322.363281"/>
     <use xlink:href="#ArialMT-6f" x="344.580078"/>
     <use xlink:href="#ArialMT-79" x="400.195312"/>
     <use xlink:href="#ArialMT-6d" x="450.195312"/>
     <use xlink:href="#ArialMT-65" x="533.496094"/>
     <use xlink:href="#ArialMT-6e" x="589.111328"/>
     <use xlink:href="#ArialMT-74" x="644.726562"/>
     <use xlink:href="#ArialMT-20" x="672.509766"/>
     <use xlink:href="#ArialMT-52" x="700.292969"/>
     <use xlink:href="#ArialMT-61" x="772.509766"/>
     <use xlink:href="#ArialMT-74" x="828.125"/>
     <use xlink:href="#ArialMT-65" x="855.908203"/>
     <use xlink:href="#ArialMT-20" x="911.523438"/>
     <use xlink:href="#ArialMT-62" x="939.306641"/>
     <use xlink:href="#ArialMT-79" x="994.921875"/>
     <use xlink:href="#ArialMT-20" x="1044.921875"/>
     <use xlink:href="#ArialMT-47" x="1072.705078"/>
     <use xlink:href="#ArialMT-65" x="1150.488281"/>
     <use xlink:href="#ArialMT-6e" x="1206.103516"/>
     <use xlink:href="#ArialMT-64" x="1261.71875"/>
     <use xlink:href="#ArialMT-65" x="1317.333984"/>
     <use xlink:href="#ArialMT-72" x="1372.949219"/>
    </g>
   </g>
   <g id="legend_1">
    <g id="patch_7">
     <path d="M 45.467188 62.594062 
L 131.196875 62.594062 
Q 133.196875 62.594062 133.196875 60.594062 
L 133.196875 33.303437 
Q 133.196875 31.303437 131.196875 31.303437 
L 45.467188 31.303437 
Q 43.467188 31.303437 43.467188 33.303437 
L 43.467188 60.594062 
Q 43.467188 62.594062 45.467188 62.594062 
z
" style="fill: #ffffff; opacity: 0.8; stroke: #cccccc; stroke-linejoin: miter"/>
    </g>
    <g id="line2d_19">
     <path d="M 47.467188 38.96125 
L 57.467188 38.96125 
L 67.467188 38.96125 
" style="fill: none; stroke: #1f77b4; stroke-width: 1.5; stroke-linecap: round"/>
    </g>
    <g id="text_20">
     <!-- UE_Men -->
     <g style="fill: #262626" transform="translate(75.467188 42.46125)scale(0.1 -0.1)">
      <defs>
       <path id="ArialMT-5f" d="M -97 -1272 
L -97 -866 
L 3631 -866 
L 3631 -1272 
L -97 -1272 
z
" transform="scale(0.015625)"/>
       <path id="ArialMT-4d" d="M 475 0 
L 475 4581 
L 1388 4581 
L 2472 1338 
Q 2622 884 2691 659 
Q 2769 909 2934 1394 
L 4031 4581 
L 4847 4581 
L 4847 0 
L 4263 0 
L 4263 3834 
L 2931 0 
L 2384 0 
L 1059 3900 
L 1059 0 
L 475 0 
z
" transform="scale(0.015625)"/>
      </defs>
      <use xlink:href="#ArialMT-55"/>
      <use xlink:href="#ArialMT-45" x="72.216797"/>
      <use xlink:href="#ArialMT-5f" x="138.916016"/>
      <use xlink:href="#ArialMT-4d" x="194.53125"/>
      <use xlink:href="#ArialMT-65" x="277.832031"/>
      <use xlink:href="#ArialMT-6e" x="333.447266"/>
     </g>
    </g>
    <g id="line2d_20">
     <path d="M 47.467188 53.106562 
L 57.467188 53.106562 
L 67.467188 53.106562 
" style="fill: none; stroke: #ff7f0e; stroke-width: 1.5; stroke-linecap: round"/>
    </g>
    <g id="text_21">
     <!-- UE_Women -->
     <g style="fill: #262626" transform="translate(75.467188 56.606562)scale(0.1 -0.1)">
      <defs>
       <path id="ArialMT-57" d="M 1294 0 
L 78 4581 
L 700 4581 
L 1397 1578 
Q 1509 1106 1591 641 
Q 1766 1375 1797 1488 
L 2669 4581 
L 3400 4581 
L 4056 2263 
Q 4303 1400 4413 641 
Q 4500 1075 4641 1638 
L 5359 4581 
L 5969 4581 
L 4713 0 
L 4128 0 
L 3163 3491 
Q 3041 3928 3019 4028 
Q 2947 3713 2884 3491 
L 1913 0 
L 1294 0 
z
" transform="scale(0.015625)"/>
      </defs>
      <use xlink:href="#ArialMT-55"/>
      <use xlink:href="#ArialMT-45" x="72.216797"/>
      <use xlink:href="#ArialMT-5f" x="138.916016"/>
      <use xlink:href="#ArialMT-57" x="194.53125"/>
      <use xlink:href="#ArialMT-6f" x="287.166016"/>
      <use xlink:href="#ArialMT-6d" x="342.78125"/>
      <use xlink:href="#ArialMT-65" x="426.082031"/>
      <use xlink:href="#ArialMT-6e" x="481.697266"/>
     </g>
    </g>
   </g>
  </g>
 </g>
 <defs>
  <clipPath id="padf6c4028f">
   <rect x="38.467188" y="26.303437" width="334.8" height="217.44"/>
  </clipPath>
 </defs>
</svg>
